<?xml version="1.0" encoding="UTF-8" standalone="no"?>
<!-- Created with Inkscape (http://www.inkscape.org/) -->

<svg
   xmlns:dc="http://purl.org/dc/elements/1.1/"
   xmlns:cc="http://creativecommons.org/ns#"
   xmlns:rdf="http://www.w3.org/1999/02/22-rdf-syntax-ns#"
   xmlns:svg="http://www.w3.org/2000/svg"
   xmlns="http://www.w3.org/2000/svg"
   xmlns:sodipodi="http://sodipodi.sourceforge.net/DTD/sodipodi-0.dtd"
   xmlns:inkscape="http://www.inkscape.org/namespaces/inkscape"
   width="400px"
   height="400px"
   viewBox="0 0 400 400"
   version="1.1"
   id="SVGRoot"
   sodipodi:docname="king_of_frogs.svg"
   inkscape:version="0.92.4 5da689c313, 2019-01-14">
  <defs
     id="defs847" />
  <sodipodi:namedview
     id="base"
     pagecolor="#ffffff"
     bordercolor="#666666"
     borderopacity="1.0"
     inkscape:pageopacity="0.0"
     inkscape:pageshadow="2"
     inkscape:zoom="3.6203867"
     inkscape:cx="152.02895"
     inkscape:cy="126.5461"
     inkscape:document-units="px"
     inkscape:current-layer="layer1"
     showgrid="false"
     inkscape:window-width="1892"
     inkscape:window-height="1079"
     inkscape:window-x="28"
     inkscape:window-y="0"
     inkscape:window-maximized="1" />
  <metadata
     id="metadata850">
    <rdf:RDF>
      <cc:Work
         rdf:about="">
        <dc:format>image/svg+xml</dc:format>
        <dc:type
           rdf:resource="http://purl.org/dc/dcmitype/StillImage" />
      </cc:Work>
    </rdf:RDF>
  </metadata>
  <g
     inkscape:label="Layer 1"
     inkscape:groupmode="layer"
     id="layer1">
    <path
       style="fill:none;stroke:#000000;stroke-width:1px;stroke-linecap:butt;stroke-linejoin:miter;stroke-opacity:1"
       d="m 121.48438,225 c 0.39062,0.52083 0.83691,1.00424 1.17187,1.5625 0.0768,0.12801 0,1.33829 0,1.5625 0,1.17187 0,2.34375 0,3.51562 0,0.78125 0,1.5625 0,2.34375 0,0.0928 -0.0438,1.47495 0,1.5625 0.0824,0.16471 0.30827,0.22593 0.39063,0.39063 0.0582,0.11646 0,0.26042 0,0.39062 0,0.13021 0,0.26042 0,0.39063 0,0.65104 0,1.30208 0,1.95312 0,0.13021 0,0.26042 0,0.39063 0,0.13021 -0.0921,0.29855 0,0.39062 0.0921,0.0921 0.29855,-0.0921 0.39062,0 0.0799,0.0799 -0.0774,1.017 0,1.17188 0.0824,0.1647 0.30827,0.22592 0.39063,0.39062 0.11646,0.23293 -0.11647,0.54833 0,0.78125 0.0824,0.16471 0.30827,0.22593 0.39062,0.39063 0.22902,0.45804 -0.23181,0.46363 -0.39062,0.78125 -0.0559,0.1118 0,1.74445 0,1.95312 0,0.26042 0,0.52084 0,0.78125 0,0.13021 -0.0582,0.27417 0,0.39063 0.0824,0.1647 0.30827,0.22592 0.39062,0.39062 0.0582,0.11647 -0.0582,0.27417 0,0.39063 0.0824,0.1647 0.30827,0.22592 0.39063,0.39062 0.0582,0.11647 -0.0582,0.27417 0,0.39063 0.0824,0.1647 0.30827,0.22592 0.39062,0.39062 0.0582,0.11647 -0.0921,0.29856 0,0.39063 0.0921,0.0921 0.29855,-0.0921 0.39063,0 0.10688,0.10688 -0.10596,1.35059 0,1.5625 0.0824,0.1647 0.30827,0.22592 0.39062,0.39062 0.0582,0.11647 -0.0921,0.29856 0,0.39063 0.0921,0.0921 0.29855,-0.0921 0.39063,0 0.0921,0.0921 -0.0921,0.29855 0,0.39062 0.0921,0.0921 0.29855,-0.0921 0.39062,0 0.80822,0.80822 -1.23506,-0.0316 0.39063,0.78125 0.53881,0.26941 0.3494,-0.47306 0.78125,0.39063 0.0582,0.11646 -0.0921,0.29855 0,0.39062 0.0921,0.0921 0.27416,-0.0582 0.39062,0 0.1647,0.0824 0.22592,0.30828 0.39063,0.39063 0.11646,0.0582 0.27416,-0.0582 0.39062,0 0.1647,0.0823 0.26042,0.26042 0.39063,0.39062 0.1302,0.13021 0.26041,0.26042 0.39062,0.39063 1.29554,1.29554 -0.36828,-0.18414 0.78125,0.39062 0.3294,0.16471 0.45185,0.61655 0.78125,0.78125 0.41626,0.20814 0.36499,-0.20813 0.78125,0 0.1647,0.0824 0.22592,0.30828 0.39063,0.39063 0.41626,0.20813 0.36498,-0.20813 0.78125,0 0.1647,0.0823 0.21593,0.33239 0.39062,0.39062 0.24705,0.0824 0.52083,0 0.78125,0 0.13021,0 0.27416,-0.0582 0.39063,0 0.1647,0.0824 0.22592,0.30828 0.39062,0.39063 0.3125,0.15625 0.85938,-0.15625 1.17188,0 0.1647,0.0824 0.22592,0.30827 0.39062,0.39062 0.3125,0.15625 0.85938,-0.15625 1.17188,0 0.1647,0.0824 0.22592,0.30828 0.39062,0.39063 0.3125,0.15625 0.85938,-0.15625 1.17188,0 0.1647,0.0824 0.22592,0.30827 0.39062,0.39062 0.11876,0.0594 1.29276,0 1.5625,0 1.5625,0 3.125,0 4.6875,0 1.30208,0 2.60417,0 3.90625,0 0.33072,0 1.3525,0.07 1.5625,0 0.17469,-0.0582 0.21593,-0.33239 0.39063,-0.39062 0.48513,-0.16171 1.43952,0.1284 1.95312,0 0.28246,-0.0706 0.50504,-0.29855 0.78125,-0.39063 0.12353,-0.0412 0.26042,0 0.39063,0 0.3198,0 1.70003,0.0844 1.95312,0 0.27621,-0.0921 0.50504,-0.29855 0.78125,-0.39062 0.12353,-0.0412 0.26042,0 0.39063,0 0.21803,0 1.77431,0.0596 1.95312,0 0.17469,-0.0582 0.21593,-0.33239 0.39063,-0.39063 0.21,-0.07 1.23177,0 1.5625,0 1.04166,0 2.08333,0 3.125,0 1.82291,0 3.64583,0 5.46875,0 0.24205,0 2.22153,-0.0611 2.34375,0 0.11646,0.0582 -0.0921,0.29856 0,0.39063 0.11557,0.11558 1.32054,-0.12098 1.5625,0 0.1647,0.0824 0.21593,0.33239 0.39062,0.39062 0.48848,0.16283 2.2459,-0.16282 2.73438,0 0.17469,0.0582 0.21593,0.3324 0.39062,0.39063 0.24705,0.0824 0.52083,0 0.78125,0 0.13021,0 0.27416,-0.0582 0.39063,0 0.1647,0.0824 0.22592,0.30827 0.39062,0.39062 0.41626,0.20814 0.36499,-0.20813 0.78125,0 0.1647,0.0824 0.22592,0.30828 0.39063,0.39063 0.23292,0.11646 0.54832,-0.11646 0.78125,0 0.1647,0.0824 0.22592,0.30827 0.39062,0.39062 0.11646,0.0582 0.27416,-0.0582 0.39063,0 0.1647,0.0824 0.22592,0.30828 0.39062,0.39063 0.11646,0.0582 0.29855,-0.0921 0.39063,0 0.0921,0.0921 -0.0921,0.29855 0,0.39062 0.18414,0.18415 0.5971,-0.18414 0.78125,0 0.0921,0.0921 -0.0921,0.29856 0,0.39063 0.0921,0.0921 0.27416,-0.0582 0.39062,0 1.62569,0.81284 -0.41759,-0.027 0.39063,0.78125 0.0921,0.0921 0.29855,-0.0921 0.39062,0 0.0921,0.0921 -0.0582,0.27416 0,0.39062 0.0508,0.1017 0.51184,0.66004 0.78125,0.39063 0.0921,-0.0921 -0.0921,-0.29855 0,-0.39063 0.0921,-0.0921 0.29855,0.0921 0.39063,0 0.0921,-0.0921 -0.0921,-0.29855 0,-0.39062 0.20587,-0.20588 0.57537,-0.18475 0.78125,-0.39063 0.0921,-0.0921 -0.0921,-0.29855 0,-0.39062 0.0921,-0.0921 0.27416,0.0582 0.39062,0 0.3294,-0.1647 0.45185,-0.61655 0.78125,-0.78125 0.11646,-0.0582 0.28229,0.0722 0.39063,0 0.30643,-0.20429 0.48662,-0.56028 0.78125,-0.78125 0.23292,-0.17469 0.53899,-0.22912 0.78125,-0.39063 0.89386,-0.59591 -0.24426,-0.3092 1.17187,-0.78125 0.24705,-0.0824 0.54833,0.11647 0.78125,0 0.1647,-0.0824 0.22592,-0.30827 0.39063,-0.39062 0.11646,-0.0582 0.27416,0.0582 0.39062,0 0.1647,-0.0824 0.22592,-0.30827 0.39063,-0.39063 0.24551,-0.12275 1.31698,0.12276 1.5625,0 0.1647,-0.0824 0.21593,-0.33239 0.39062,-0.39062 1.77824,0 0.0223,0.18414 1.17188,-0.39063 0.23292,-0.11646 0.54832,0.11647 0.78125,0 0.1647,-0.0824 0.21593,-0.33239 0.39062,-0.39062 0.24705,-0.0823 0.52083,0 0.78125,0 0.13021,0 0.27416,0.0582 0.39063,0 0.1647,-0.0823 0.22592,-0.30827 0.39062,-0.39063 0.11646,-0.0582 0.2671,0.0412 0.39063,0 0.27621,-0.0921 0.50503,-0.29855 0.78125,-0.39062 0.24705,-0.0823 0.54832,0.11646 0.78125,0 0.1647,-0.0823 0.21593,-0.33239 0.39062,-0.39063 0.26574,-0.0886 1.746,0.10357 1.95313,0 0.1647,-0.0824 0.21593,-0.33239 0.39062,-0.39062 0.21,-0.07 1.23178,0 1.5625,0 0.2717,0 1.81186,0.0706 1.95313,0 0.1647,-0.0823 0.22592,-0.30827 0.39062,-0.39063 0.41626,-0.20813 0.36499,0.20814 0.78125,0 0.1647,-0.0824 0.22592,-0.30827 0.39063,-0.39062 0.23292,-0.11646 0.53419,0.0823 0.78125,0 0.27621,-0.0921 0.50503,-0.29855 0.78125,-0.39063 0.22745,-0.0758 2.07497,0 2.34375,0 0.1302,0 0.26041,0 0.39062,0 0.13021,0 0.27416,0.0582 0.39063,0 0.1647,-0.0824 0.21593,-0.33239 0.39062,-0.39062 0.20124,-0.0671 2.32116,0 2.73438,0 0.1302,0 0.26709,0.0412 0.39062,0 0.27621,-0.0921 0.50504,-0.29855 0.78125,-0.39063 0.22039,-0.0735 0.91519,0 1.17188,0 0.91145,0 1.82291,0 2.73437,0 1.82292,0 3.64583,0 5.46875,0 0.26042,0 0.52083,0 0.78125,0 0.13021,0 0.29855,0.0921 0.39063,0 0.0921,-0.0921 -0.11647,-0.33239 0,-0.39062 0.23374,-0.11687 2.10029,0.12173 2.34375,0 0.1647,-0.0823 0.22592,-0.30827 0.39062,-0.39063 0.24259,-0.12129 2.09345,0.12516 2.34375,0 0.1647,-0.0824 0.22592,-0.30827 0.39063,-0.39062 0.11646,-0.0582 0.27416,0.0582 0.39062,0 0.1647,-0.0823 0.22592,-0.30827 0.39063,-0.39063 0.23292,-0.11646 0.5971,0.18415 0.78125,0 0.80821,-0.80821 -1.23507,0.0316 0.39062,-0.78125 0.23292,-0.11646 0.5342,0.0824 0.78125,0 0.27621,-0.0921 0.50504,-0.29855 0.78125,-0.39062 0.12353,-0.0412 0.27416,0.0582 0.39063,0 0.46875,-0.23438 0.70312,-0.9375 1.17187,-1.17188 0.11646,-0.0582 0.29855,0.0921 0.39063,0 0.0921,-0.0921 -0.0921,-0.29855 0,-0.39062 0.0921,-0.0921 0.27416,0.0582 0.39062,0 1.62569,-0.81284 -0.41759,0.027 0.39063,-0.78125 0.0921,-0.0921 0.29855,0.0921 0.39062,0 0.0921,-0.0921 -0.0582,-0.27416 0,-0.39063 0.0823,-0.1647 0.30827,-0.22592 0.39063,-0.39062 0.0582,-0.11646 -0.0921,-0.29855 0,-0.39063 0.0921,-0.0921 0.29855,0.0921 0.39062,0 0.0921,-0.0921 -0.0582,-0.27416 0,-0.39062 0.0823,-0.1647 0.30827,-0.22592 0.39063,-0.39063 0.0582,-0.11646 -0.0582,-0.27416 0,-0.39062 0.1647,-0.3294 0.61654,-0.45185 0.78125,-0.78125 0.11646,-0.23292 -0.11647,-0.54833 0,-0.78125 0.0824,-0.1647 0.30827,-0.22592 0.39062,-0.39063 0.0594,-0.11888 0,-0.99595 0,-1.17187 0,-0.91609 -0.0921,0.18414 0.39063,-0.78125 0.11859,-0.2372 -0.1186,-2.10655 0,-2.34375 0.0824,-0.1647 0.30827,-0.22592 0.39062,-0.39063 0.0594,-0.11888 0,-0.99595 0,-1.17187 0,-4.03646 0,-8.07292 0,-12.10938 0,-0.39062 -0.17469,-0.82248 0,-1.17187 0.0582,-0.11646 0.29855,0.0921 0.39063,0 0.0921,-0.0921 -0.0921,-0.29855 0,-0.39063 0.0921,-0.0921 0.29855,0.0921 0.39062,0 0.094,-0.094 -0.094,-1.4685 0,-1.5625 0.0921,-0.0921 0.29855,0.0921 0.39063,0 0.0921,-0.0921 -0.13021,-0.39062 0,-0.39062 0.1302,0 0,0.26042 0,0.39062 0.4222,-1.68882 0.39062,-1.02563 0.39062,-1.95312 0,-0.13021 0.0921,-0.29855 0,-0.39063 -0.0921,-0.0921 -0.29855,0.0921 -0.39062,0 -0.18415,-0.18414 0.11646,-0.54832 0,-0.78125 -0.0824,-0.1647 -0.26042,-0.26041 -0.39063,-0.39062 0,-0.13021 0.0582,-0.27416 0,-0.39063 -0.31219,-0.62439 -0.46905,-0.15685 -0.78125,-0.78125 -0.0582,-0.11646 0.0582,-0.27416 0,-0.39062 -0.0823,-0.1647 -0.30827,-0.22592 -0.39062,-0.39063 -0.0582,-0.11646 0.0582,-0.27416 0,-0.39062 -0.0824,-0.1647 -0.26042,-0.26042 -0.39063,-0.39063 -0.13021,-0.1302 -0.23741,-0.28848 -0.39062,-0.39062 -0.24226,-0.1615 -0.539,-0.22912 -0.78125,-0.39063 -0.15322,-0.10214 -0.22593,-0.30827 -0.39063,-0.39062 -0.11646,-0.0582 -0.2671,0.0412 -0.39062,0 -0.81513,-0.27171 -1.138,-0.90017 -1.95313,-1.17188 -0.37058,-0.12352 -0.8013,0.12353 -1.17187,0 -0.1747,-0.0582 -0.22593,-0.30827 -0.39063,-0.39062 -0.3125,-0.15625 -0.85937,0.15625 -1.17187,0 -0.16471,-0.0823 -0.22593,-0.30827 -0.39063,-0.39063 -0.24259,-0.12129 -2.09345,0.12516 -2.34375,0 -0.1647,-0.0824 -0.22592,-0.30827 -0.39062,-0.39062 -0.3125,-0.15625 -0.85938,0.15625 -1.17188,0 -0.1647,-0.0823 -0.21593,-0.33239 -0.39062,-0.39063 -0.37058,-0.12352 -0.78125,0 -1.17188,0 -0.78125,0 -1.5625,0 -2.34375,0 -0.26042,0 -0.5342,0.0824 -0.78125,0 -0.17469,-0.0582 -0.21593,-0.33239 -0.39062,-0.39062 -0.25359,-0.0845 -2.37955,0 -2.73438,0 -0.26042,0 -0.5342,0.0823 -0.78125,0 -0.27621,-0.0921 -0.49879,-0.32001 -0.78125,-0.39063 -0.25264,-0.0632 -0.52083,0 -0.78125,0 -0.91146,0 -1.82292,0 -2.73437,0 -0.26042,0 -0.52861,0.0632 -0.78125,0 -0.39947,-0.0999 -0.77242,-0.29075 -1.17188,-0.39062 -0.12632,-0.0316 -0.26042,0 -0.39062,0 -0.26042,0 -0.52084,0 -0.78125,0 -0.65105,0 -1.30209,0 -1.95313,0 -0.26042,0 -0.5342,0.0823 -0.78125,0 -0.27621,-0.0921 -0.50504,-0.29855 -0.78125,-0.39063 -0.24705,-0.0824 -0.52083,0 -0.78125,0 -0.78125,0 -1.5625,0 -2.34375,0 -0.26042,0 -0.5342,0.0824 -0.78125,0 -0.17469,-0.0582 -0.21593,-0.33239 -0.39062,-0.39062 -0.58594,-0.19531 -1.36719,0.19531 -1.95313,0 -0.17469,-0.0582 -0.21593,-0.33239 -0.39062,-0.39063 -0.58594,-0.19531 -1.36719,0.19532 -1.95313,0 -0.17469,-0.0582 -0.21593,-0.33239 -0.39062,-0.39062 -0.17882,-0.0596 -1.7351,0 -1.95313,0 -0.13021,0 -0.2671,0.0412 -0.39062,0 -0.27622,-0.0921 -0.49879,-0.32001 -0.78125,-0.39063 -0.97679,-0.24419 -0.58572,0.2442 -1.5625,0 -0.28247,-0.0706 -0.49879,-0.32 -0.78125,-0.39062 -0.37897,-0.0947 -0.8013,0.12353 -1.17188,0 -0.27621,-0.0921 -0.49879,-0.32001 -0.78125,-0.39063 -0.5136,-0.12839 -1.46799,0.16172 -1.95312,0 -0.1747,-0.0582 -0.21594,-0.33239 -0.39063,-0.39062 -0.19996,-0.0667 -2.06449,0 -2.34375,0 -1.95312,0 -3.90625,0 -5.85937,0 -0.65105,0 -1.30209,0 -1.95313,0 -0.26042,0 -0.52861,0.0632 -0.78125,0 -0.28246,-0.0706 -0.49879,-0.32001 -0.78125,-0.39063 -0.25264,-0.0632 -0.52083,0 -0.78125,0 -0.65104,0 -1.30208,0 -1.95312,0 -0.26042,0 -0.5259,0.0511 -0.78125,0 -0.40376,-0.0808 -0.76812,-0.30987 -1.17188,-0.39062 -0.25536,-0.0511 -0.52083,0 -0.78125,0 -0.39062,0 -0.78125,0 -1.17187,0 -1.04167,0 -2.08334,0 -3.125,0 -0.78125,0 -1.5625,0 -2.34375,0 -0.26042,0 -0.52861,-0.0632 -0.78125,0 -0.28247,0.0706 -0.49879,0.32001 -0.78125,0.39062 -0.50529,0.12633 -1.05722,-0.12632 -1.5625,0 -0.28247,0.0706 -0.49879,0.32001 -0.78125,0.39063 -0.25265,0.0632 -0.52084,0 -0.78125,0 -0.65105,0 -1.31473,-0.12768 -1.95313,0 -0.2855,0.0571 -0.51092,0.28249 -0.78125,0.39062 -0.3823,0.15293 -0.76812,0.30988 -1.17187,0.39063 -1.78735,0.35747 0.25099,-0.51612 -1.5625,0.39062 -0.25265,0.0632 -0.52861,-0.0632 -0.78125,0 -0.28247,0.0706 -0.49879,0.32001 -0.78125,0.39063 -0.50529,0.12632 -1.05722,-0.12632 -1.5625,0 -0.28247,0.0706 -0.50504,0.29855 -0.78125,0.39062 -0.12353,0.0412 -0.2671,-0.0412 -0.39063,0 -0.27621,0.0921 -0.49879,0.32001 -0.78125,0.39063 -0.25264,0.0632 -0.52861,-0.0632 -0.78125,0 -0.56492,0.14123 -0.99758,0.64002 -1.5625,0.78125 -0.25264,0.0632 -0.5342,-0.0823 -0.78125,0 -0.34939,0.11646 -0.43186,0.66479 -0.78125,0.78125 -0.24705,0.0823 -0.5342,-0.0823 -0.78125,0 -0.17469,0.0582 -0.22592,0.30827 -0.39062,0.39062 -0.11647,0.0582 -0.27417,-0.0582 -0.39063,0 -0.1647,0.0824 -0.22592,0.30828 -0.39062,0.39063 -0.11647,0.0582 -0.27417,-0.0582 -0.39063,0 -0.1647,0.0823 -0.22592,0.30827 -0.39062,0.39062 -0.11647,0.0582 -0.2671,-0.0412 -0.39063,0 -0.27621,0.0921 -0.49879,0.32001 -0.78125,0.39063 -0.25264,0.0632 -0.5342,-0.0823 -0.78125,0 -0.17469,0.0582 -0.22592,0.30827 -0.39062,0.39062 -0.23293,0.11647 -0.5342,-0.0824 -0.78125,0 -0.27622,0.0921 -0.50504,0.29856 -0.78125,0.39063 -0.24706,0.0823 -0.5342,-0.0823 -0.78125,0 -0.27622,0.0921 -0.50504,0.29855 -0.78125,0.39062 -0.12353,0.0412 -0.27417,-0.0582 -0.39063,0 -0.1647,0.0824 -0.22592,0.30828 -0.39062,0.39063 -1.14954,0.57477 0.51429,-0.90492 -0.78125,0.39062 -0.11647,0.0582 -0.29856,-0.0921 -0.39063,0 -0.80822,0.80822 1.23506,-0.0316 -0.39062,0.78125 -0.11647,0.0582 -0.26042,0 -0.39063,0 -0.26042,0.13021 -0.52083,0.26042 -0.78125,0.39063 -0.15322,0.10214 -0.23741,0.28848 -0.39062,0.39062 -0.24226,0.16151 -0.53159,0.24083 -0.78125,0.39063 -0.80514,0.48308 -1.50394,1.14259 -2.34375,1.5625 -0.62717,0.31358 -1.30209,0.52083 -1.95313,0.78125 -1.30208,0.52083 -2.62473,0.99294 -3.90625,1.5625 -0.53212,0.2365 -1.04167,0.52083 -1.5625,0.78125 -0.26042,0.13021 -0.52083,0.26042 -0.78125,0.39062 -0.26042,0.13021 -0.57537,0.18475 -0.78125,0.39063 -0.0921,0.0921 0.0582,0.27416 0,0.39062 -0.43185,0.8637 -0.24244,0.12122 -0.78125,0.39063 -0.34623,0.17311 -0.81628,0.93481 -1.17187,1.17187 -0.24226,0.16151 -0.52084,0.26042 -0.78125,0.39063 -0.78125,0.52083 -1.5625,1.04167 -2.34375,1.5625 z"
       id="path1458"
       inkscape:connector-curvature="0" />
    <path
       style="fill:none;stroke:#000000;stroke-width:1px;stroke-linecap:butt;stroke-linejoin:miter;stroke-opacity:1"
       d="m 244.92188,220.70312 c 4.16666,-1.56249 4.16666,-1.56249 0,0"
       id="path1460"
       inkscape:connector-curvature="0" />
    <path
       style="fill:none;stroke:#000000;stroke-width:1px;stroke-linecap:butt;stroke-linejoin:miter;stroke-opacity:1"
       d="m 121.48438,225 c 0.39062,1.5625 0.7481,3.13366 1.17187,4.6875 0.0685,0.25124 0,-0.52083 0,-0.78125 0,-0.65104 0,-1.30208 0,-1.95313 0,-0.1302 0.0921,-0.29855 0,-0.39062 -0.0921,-0.0921 -0.3125,0.10417 -0.39062,0 -1.4214,-1.8952 -0.39063,-1.79588 -0.39063,-3.90625 0,-0.20427 -0.0514,-1.45979 0,-1.5625 0.0824,-0.1647 0.30827,-0.22592 0.39063,-0.39063 0.10595,-0.2119 -0.10689,-1.45561 0,-1.5625 0.0921,-0.0921 0.29855,0.0921 0.39062,0 0.0921,-0.0921 0,-0.26041 0,-0.39062 0,-0.13021 0,-0.26042 0,-0.39063 0,-0.27687 -0.0505,-2.24275 0,-2.34375 0.0824,-0.1647 0.30827,-0.22592 0.39063,-0.39062 0.0505,-0.101 0,-2.06687 0,-2.34375 0,-0.18418 -0.0177,-1.93542 0,-1.95313 0.0921,-0.0921 0.29855,0.0921 0.39062,0 0.10688,-0.10688 -0.10595,-1.35059 0,-1.5625 0.0824,-0.1647 0.30827,-0.22592 0.39063,-0.39062 0.1349,-0.26982 -0.13712,-1.81601 0,-1.95313 0.0921,-0.0921 0.29855,0.0921 0.39062,0 0.094,-0.094 -0.094,-1.4685 0,-1.5625 0.0921,-0.0921 0.29855,0.0921 0.39063,0 0.0177,-0.0177 0,-1.76894 0,-1.95312 0,-0.20427 -0.0514,-1.45979 0,-1.5625 0.0824,-0.1647 0.30827,-0.22592 0.39062,-0.39063 0.0582,-0.11646 -0.0412,-0.26709 0,-0.39062 0.0921,-0.27621 0.32001,-0.49879 0.39063,-0.78125 0.0861,-0.34423 -0.11555,-2.11266 0,-2.34375 0.0824,-0.1647 0.30827,-0.22592 0.39062,-0.39063 0.20813,-0.41626 -0.20813,-0.36498 0,-0.78125 0.0824,-0.1647 0.30827,-0.22592 0.39063,-0.39062 0.0582,-0.11646 -0.0921,-0.29855 0,-0.39063 0.0921,-0.0921 0.29855,0.0921 0.39062,0 0.0921,-0.0921 -0.0582,-0.27416 0,-0.39062 0.89387,-1.78774 -0.1619,1.65758 0.78125,-1.17188 0.0824,-0.24705 -0.18414,-0.5971 0,-0.78125 0.0921,-0.0921 0.33239,0.11647 0.39063,0 0.11646,-0.23292 -0.0824,-0.53419 0,-0.78125 0.0795,-0.23867 1.34301,-1.23327 1.5625,-1.5625 0.74001,0.0445 0.26041,-0.91145 0.39062,-1.17187 0.0823,-0.1647 0.30827,-0.22592 0.39063,-0.39063 0.11646,-0.23292 -0.18415,-0.5971 0,-0.78125 0.0921,-0.0921 0.29855,0.0921 0.39062,0 0.18414,-0.18414 -0.18414,-0.5971 0,-0.78125 0.0921,-0.0921 0.33239,0.11647 0.39063,0 0.11646,-0.23292 -0.11647,-0.54832 0,-0.78125 0.0582,-0.11646 0.29855,0.0921 0.39062,0 0.0921,-0.0921 -0.0582,-0.27416 0,-0.39062 0.0823,-0.1647 0.30827,-0.22592 0.39063,-0.39063 0.0582,-0.11646 -0.0921,-0.29855 0,-0.39062 0.0921,-0.0921 0.29855,0.0921 0.39062,0 0.0921,-0.0921 -0.0921,-0.29855 0,-0.39063 0.0921,-0.0921 0.29855,0.0921 0.39063,0 0.0921,-0.0921 -0.0921,-0.29855 0,-0.39062 0.0921,-0.0921 0.29855,0.0921 0.39062,0 0.0921,-0.0921 -0.0582,-0.27416 0,-0.39063 0.19219,-0.38438 1.37031,-1.17811 1.5625,-1.5625 0.0582,-0.11646 -0.0582,-0.27416 0,-0.39062 0.0823,-0.1647 0.30827,-0.22592 0.39063,-0.39063 0.0582,-0.11646 -0.0921,-0.29855 0,-0.39062 0.80821,-0.80822 -0.0316,1.23506 0.78125,-0.39063 0.0582,-0.11646 -0.0582,-0.27416 0,-0.39062 0.0824,-0.1647 0.30827,-0.22592 0.39062,-0.39063 0.0582,-0.11646 -0.0921,-0.29855 0,-0.39062 0.0921,-0.0921 0.29855,0.0921 0.39063,0 0.20587,-0.20588 0.18474,-0.57537 0.39062,-0.78125 0.0921,-0.0921 0.27416,0.0582 0.39063,0 1.62568,-0.81284 -0.4176,0.027 0.39062,-0.78125 0.0921,-0.0921 0.27416,0.0582 0.39063,0 1.62568,-0.81284 -0.4176,0.027 0.39062,-0.78125 0.0921,-0.0921 0.27416,0.0582 0.39063,0 0.3294,-0.1647 0.43186,-0.66479 0.78125,-0.78125 0.24705,-0.0823 0.53419,0.0823 0.78125,0 0.17469,-0.0582 0.22592,-0.30827 0.39062,-0.39063 0.11646,-0.0582 0.26042,0 0.39063,0 0.26041,-0.1302 0.53899,-0.22912 0.78125,-0.39062 0.15321,-0.10214 0.21593,-0.33239 0.39062,-0.39063 0.24705,-0.0824 0.54833,0.11647 0.78125,0 0.11646,-0.0582 -0.0582,-0.27416 0,-0.39062 0.0823,-0.1647 0.22592,-0.30827 0.39063,-0.39063 0.23292,-0.11646 0.54832,0.11647 0.78125,0 1.29554,-1.29554 -0.36829,0.18415 0.78125,-0.39062 0.1647,-0.0823 0.21593,-0.33239 0.39062,-0.39063 0.24705,-0.0824 0.52861,0.0632 0.78125,0 0.56492,-0.14123 0.99758,-0.64001 1.5625,-0.78125 0.50528,-0.12632 1.05722,0.12633 1.5625,0 0.28246,-0.0706 0.50504,-0.29855 0.78125,-0.39062 0.12353,-0.0412 0.2671,0.0412 0.39063,0 0.27621,-0.0921 0.50503,-0.29855 0.78125,-0.39063 0.24705,-0.0824 0.52083,0 0.78125,0 0.50385,0 2.46902,0.0885 2.73437,0 0.27621,-0.0921 0.50504,-0.29855 0.78125,-0.39062 0.25309,-0.0844 1.63332,0 1.95313,0 0.91145,0 1.82291,0 2.73437,0 0.39063,0 0.79291,-0.0947 1.17188,0 0.28246,0.0706 0.50503,0.29855 0.78125,0.39062 0.12352,0.0412 0.26041,0 0.39062,0 0.26042,0 0.52083,0 0.78125,0 0.65104,0 1.30208,0 1.95313,0 1.95312,0 3.90625,0 5.85937,0 2.99479,0 5.98958,0 8.98438,0 0.91145,0 1.82291,0 2.73437,0 0.26042,0 0.52083,0 0.78125,0 0.13021,0 0.2671,-0.0412 0.39063,0 0.27621,0.0921 0.49878,0.32001 0.78125,0.39063 0.25264,0.0632 0.52083,0 0.78125,0 0.26041,0 0.52083,0 0.78125,0 1.30208,0 2.60416,0 3.90625,0 0.39062,0 0.79291,-0.0947 1.17187,0 0.28246,0.0706 0.50504,0.29855 0.78125,0.39062 0.25309,0.0844 1.63332,0 1.95313,0 0.91145,0 1.82291,0 2.73437,0 0.39063,0 0.8013,-0.12352 1.17188,0 0.17469,0.0582 0.22592,0.30828 0.39062,0.39063 0.23292,0.11646 0.5342,-0.0823 0.78125,0 0.27621,0.0921 0.50504,0.29855 0.78125,0.39062 0.21536,0.0718 1.47899,-0.0835 1.5625,0 0.0921,0.0921 -0.0921,0.29856 0,0.39063 0.0921,0.0921 0.26042,0 0.39063,0 0.45215,0 1.60438,-0.0872 1.95312,0 0.28246,0.0706 0.50504,0.29855 0.78125,0.39062 0.23292,0.0776 1.96529,0 2.34375,0 0.13021,0 0.27416,-0.0582 0.39063,0 0.1647,0.0824 0.22592,0.30828 0.39062,0.39063 0.23048,0.11524 0.90319,-0.0896 1.17188,0 0.27621,0.0921 0.49878,0.32001 0.78125,0.39062 0.1903,0.0476 1.35594,-0.10327 1.5625,0 0.1647,0.0824 0.22592,0.30828 0.39062,0.39063 0.3125,0.15625 0.85938,-0.15625 1.17188,0 0.1647,0.0823 0.22592,0.30827 0.39062,0.39062 0.3125,0.15625 0.85938,-0.15625 1.17188,0 0.1647,0.0824 0.21593,0.3324 0.39062,0.39063 0.49411,0.1647 1.09665,-0.23292 1.5625,0 0.11646,0.0582 -0.0921,0.29855 0,0.39062 0.0799,0.0799 1.017,-0.0774 1.17188,0 0.1647,0.0824 0.22592,0.30828 0.39062,0.39063 0.16683,0.0834 1.79871,0 1.95313,0 0.1302,0 0.29855,-0.0921 0.39062,0 0.0921,0.0921 -0.0921,0.29855 0,0.39062 0.18414,0.18415 0.54833,-0.11646 0.78125,0 0.1647,0.0824 0.21593,0.3324 0.39063,0.39063 0.24705,0.0823 0.52083,0 0.78125,0 0.1302,0 0.27416,-0.0582 0.39062,0 0.1647,0.0823 0.21593,0.33239 0.39063,0.39062 1.77823,0 0.0223,-0.18414 1.17187,0.39063 0.23292,0.11646 0.54833,-0.11646 0.78125,0 0.1647,0.0823 0.22592,0.30827 0.39063,0.39062 0.11646,0.0582 0.27416,-0.0582 0.39062,0 0.1647,0.0824 0.22592,0.30828 0.39063,0.39063 0.11646,0.0582 0.27416,-0.0582 0.39062,0 0.41626,0.20813 0.36499,0.57312 0.78125,0.78125 0.11646,0.0582 0.27416,-0.0582 0.39063,0 0.3294,0.1647 0.45184,0.61655 0.78125,0.78125 0.11646,0.0582 0.29855,-0.0921 0.39062,0 0.0921,0.0921 -0.0921,0.29855 0,0.39062 0.0921,0.0921 0.27416,-0.0582 0.39063,0 0.1647,0.0824 0.22592,0.30828 0.39062,0.39063 0.23292,0.11646 0.59711,-0.18414 0.78125,0 0.0921,0.0921 -0.0921,0.29855 0,0.39062 0.0921,0.0921 0.27416,-0.0582 0.39063,0 0.1647,0.0824 0.22592,0.30828 0.39062,0.39063 0.11646,0.0582 0.27416,-0.0582 0.39063,0 0.1647,0.0823 0.22592,0.30827 0.39062,0.39062 0.11646,0.0582 0.27416,-0.0582 0.39063,0 0.1647,0.0824 0.22592,0.30828 0.39062,0.39063 0.11646,0.0582 0.29855,-0.0921 0.39063,0 0.0921,0.0921 -0.0921,0.29855 0,0.39062 0.0921,0.0921 0.27416,-0.0582 0.39062,0 0.1647,0.0824 0.22592,0.30828 0.39063,0.39063 0.11646,0.0582 0.26041,0 0.39062,0 0.26042,0.13021 0.53899,0.22912 0.78125,0.39062 0.30643,0.20429 0.45185,0.61655 0.78125,0.78125 0.11646,0.0582 0.29855,-0.0921 0.39063,0 0.0921,0.0921 -0.0921,0.29856 0,0.39063 0.0921,0.0921 0.29855,-0.0921 0.39062,0 0.0921,0.0921 -0.0582,0.27416 0,0.39062 0.19219,0.38439 1.37031,1.17812 1.5625,1.5625 0.0582,0.11647 -0.0582,0.27417 0,0.39063 0.0823,0.1647 0.30827,0.22592 0.39063,0.39062 0.0582,0.11647 -0.0582,0.27417 0,0.39063 0.0824,0.1647 0.30827,0.22592 0.39062,0.39062 0.0582,0.11647 -0.0582,0.27417 0,0.39063 0.0823,0.1647 0.30827,0.22592 0.39063,0.39062 0.11646,0.23293 -0.0824,0.5342 0,0.78125 0.0921,0.27622 0.29855,0.50504 0.39062,0.78125 0.0896,0.26869 -0.11524,0.9414 0,1.17188 0.0823,0.1647 0.30827,0.22592 0.39063,0.39062 0.11646,0.23293 -0.11647,0.54833 0,0.78125 0.0824,0.16471 0.30827,0.22593 0.39062,0.39063 0.11646,0.23292 -0.18414,0.59711 0,0.78125 0.0921,0.0921 0.29855,-0.0921 0.39063,0 0.0606,0.0606 -0.0507,1.01987 0,1.17187 0.0921,0.27622 0.29855,0.50504 0.39062,0.78125 0.0823,0.24706 -0.11646,0.54833 0,0.78125 0.1647,0.32941 0.61655,0.45185 0.78125,0.78125 0.0582,0.11647 -0.0582,0.27417 0,0.39063 0.0823,0.1647 0.30827,0.22592 0.39063,0.39062 0.0774,0.15488 -0.0799,1.09202 0,1.17188 0.0921,0.0921 0.29855,-0.0921 0.39062,0 0.0921,0.0921 -0.0582,0.27416 0,0.39062 0.0823,0.16471 0.30827,0.22593 0.39063,0.39063 0.0706,0.14126 0,1.68143 0,1.95312 0,0.13021 -0.0921,0.29856 0,0.39063 0.0921,0.0921 0.29855,-0.0921 0.39062,0 0.0799,0.0799 -0.0774,1.017 0,1.17187 0.0823,0.16471 0.30827,0.22593 0.39063,0.39063 0.15625,0.3125 -0.15625,0.85937 0,1.17187 0.0824,0.16471 0.30827,0.22593 0.39062,0.39063 0.11646,0.23292 -0.11646,0.54833 0,0.78125 0.0823,0.1647 0.30827,0.22592 0.39063,0.39062 0.11646,0.23293 -0.18415,0.59711 0,0.78125 0.0921,0.0921 0.29855,-0.0921 0.39062,0 0.18414,0.18415 -0.18414,0.59711 0,0.78125 0.0921,0.0921 0.29855,-0.0921 0.39063,0 0.0606,0.0606 -0.0507,1.01988 0,1.17188 0.0921,0.27621 0.29855,0.50504 0.39062,0.78125 0.0817,0.24518 0,1.24803 0,1.5625 0,1.04167 -0.13021,-0.13021 0.39063,0.39062 0.0157,0.0157 0,1.41905 0,1.5625 0,0.17593 -0.0594,1.053 0,1.17188 0.0824,0.1647 0.30827,0.22592 0.39062,0.39062 0.0401,0.0801 0.0551,1.11679 0,1.17188 -0.0921,0.0921 -0.29855,-0.0921 -0.39062,0 -0.18415,0.18414 0.23292,0.66479 0,0.78125 -0.48019,0.24009 -1.04167,0.26041 -1.5625,0.39062"
       id="path1462"
       inkscape:connector-curvature="0" />
    <path
       style="fill:none;stroke:#000000;stroke-width:1px;stroke-linecap:butt;stroke-linejoin:miter;stroke-opacity:1"
       d="m 207.03125,175.78125 c -0.13021,-0.52083 -0.39062,-1.02564 -0.39062,-1.5625 0,-0.13021 0.29855,0.0921 0.39062,0 0.18414,-0.18414 -0.11646,-0.54833 0,-0.78125 0.0823,-0.1647 0.30827,-0.22592 0.39063,-0.39063 0.12275,-0.24551 -0.12276,-1.31698 0,-1.5625 0.0824,-0.1647 0.30827,-0.22592 0.39062,-0.39062 0.11646,-0.23292 -0.18414,-0.59711 0,-0.78125 0.0921,-0.0921 0.29855,0.0921 0.39063,0 0.10688,-0.10688 -0.10596,-1.35059 0,-1.5625 0.0824,-0.1647 0.30827,-0.22592 0.39062,-0.39063 0.20813,-0.41626 -0.20813,-0.36498 0,-0.78125 0.0823,-0.1647 0.30827,-0.22592 0.39063,-0.39062 0.11646,-0.23292 -0.11647,-0.54833 0,-0.78125 0.0824,-0.1647 0.30827,-0.22592 0.39062,-0.39063 0.0582,-0.11646 -0.0582,-0.27416 0,-0.39062 0.0823,-0.1647 0.30827,-0.22592 0.39063,-0.39063 0.11646,-0.23292 -0.11647,-0.54832 0,-0.78125 0.0824,-0.1647 0.30827,-0.22592 0.39062,-0.39062 0.0582,-0.11646 -0.0582,-0.27416 0,-0.39063 0.0823,-0.1647 0.30827,-0.22592 0.39063,-0.39062 0.0582,-0.11646 -0.0921,-0.29855 0,-0.39063 0.0921,-0.0921 0.29855,0.0921 0.39062,0 0.18414,-0.18414 -0.18414,-0.5971 0,-0.78125 0.0921,-0.0921 0.29855,0.0921 0.39063,0 0.18414,-0.18414 -0.18415,-0.5971 0,-0.78125 0.0921,-0.0921 0.29855,0.0921 0.39062,0 0.0921,-0.0921 -0.0921,-0.29855 0,-0.39062 0.0921,-0.0921 0.29855,0.0921 0.39063,0 0.0921,-0.0921 -0.0582,-0.27416 0,-0.39063 0.23437,-0.46875 0.9375,-0.70312 1.17187,-1.17187 0.0582,-0.11646 -0.0921,-0.29855 0,-0.39063 0.0921,-0.0921 0.29855,0.0921 0.39063,0 0.18414,-0.18414 -0.11647,-0.54832 0,-0.78125 0.0824,-0.1647 0.26041,-0.26041 0.39062,-0.39062 0.13021,-0.13021 0.22592,-0.30827 0.39063,-0.39063 0.11646,-0.0582 0.26041,0 0.39062,0 0.13021,-0.1302 0.22592,-0.30827 0.39063,-0.39062 0.11646,-0.0582 0.26041,0 0.39062,0 0.26042,0 0.5342,0.0823 0.78125,0 0.17469,-0.0582 0.21593,-0.33239 0.39063,-0.39063 0.24705,-0.0824 0.53419,0.0824 0.78125,0 0.26451,-0.0882 0.87348,-1.02267 1.17187,-1.17187 0.23292,-0.11646 0.54833,0.11646 0.78125,0 0.1647,-0.0823 0.21593,-0.33239 0.39063,-0.39063 0.4941,-0.1647 1.05721,0.12633 1.5625,0 0.56492,-0.14123 0.99757,-0.64001 1.5625,-0.78125 0.25264,-0.0632 0.52083,0 0.78125,0 0.65104,0 1.30208,0 1.95312,0 0.52083,0 1.04167,0 1.5625,0 0.26042,0 0.5342,-0.0824 0.78125,0 0.27621,0.0921 0.49879,0.32001 0.78125,0.39063 0.25264,0.0632 0.52083,0 0.78125,0 0.26042,0.13021 0.50504,0.29855 0.78125,0.39062 0.24705,0.0824 0.54833,-0.11646 0.78125,0 0.1647,0.0824 0.22592,0.30828 0.39063,0.39063 0.11646,0.0582 0.29855,-0.0921 0.39062,0 0.0921,0.0921 -0.0921,0.29855 0,0.39062 0.0921,0.0921 0.29855,-0.0921 0.39063,0 0.18414,0.18415 -0.18415,0.59711 0,0.78125 0.0921,0.0921 0.29855,-0.0921 0.39062,0 0.0921,0.0921 -0.0921,0.29856 0,0.39063 0.18414,0.18414 0.54833,-0.11646 0.78125,0 0.1647,0.0823 0.22592,0.30827 0.39063,0.39062 0.11646,0.0582 0.27416,-0.0582 0.39062,0 0.1647,0.0824 0.22592,0.30828 0.39063,0.39063 0.11646,0.0582 0.29855,-0.0921 0.39062,0 0.0921,0.0921 -0.0921,0.29855 0,0.39062 0.0921,0.0921 0.29855,-0.0921 0.39063,0 0.0921,0.0921 -0.0921,0.29856 0,0.39063 0.0921,0.0921 0.27416,-0.0582 0.39062,0 0.1647,0.0823 0.22592,0.30827 0.39063,0.39062 0.11646,0.0582 0.29855,-0.0921 0.39062,0 0.0921,0.0921 -0.0921,0.29856 0,0.39063 0.0921,0.0921 0.29855,-0.0921 0.39063,0 0,1.04167 -0.13021,-0.13021 0.39062,0.39062 0.0921,0.0921 -0.0921,0.29856 0,0.39063 0.0921,0.0921 0.27416,-0.0582 0.39063,0 1.62568,0.81284 -0.4176,-0.027 0.39062,0.78125 0.0921,0.0921 0.33239,-0.11646 0.39063,0 0.0571,0.1143 0,2.02402 0,2.34375 0,0.13021 -0.0921,0.29855 0,0.39062 0.0921,0.0921 0.29855,-0.0921 0.39062,0 0.0126,0.0126 0,1.07714 0,1.17188 0,1.30208 0,2.60417 0,3.90625 0,0.36791 0.0741,1.73091 0,1.95312 -0.0582,0.1747 -0.30827,0.22593 -0.39062,0.39063 -0.0582,0.11646 0,0.26042 0,0.39062 0,0.13021 0,0.26042 0,0.39063 0,0.65104 0,1.30208 0,1.95312 0,0.13021 0.0582,0.27417 0,0.39063 -0.0824,0.1647 -0.30828,0.22592 -0.39063,0.39062 -0.15625,0.3125 0.15625,0.85938 0,1.17188 -0.0823,0.1647 -0.30827,0.22592 -0.39062,0.39062 -0.12276,0.24552 0.12275,1.31699 0,1.5625 -0.0824,0.16471 -0.30828,0.22593 -0.39063,0.39063 -0.12276,0.24552 0.12276,1.31698 0,1.5625 -0.0823,0.1647 -0.30827,0.22592 -0.39062,0.39062 -0.0706,0.14127 0,1.68143 0,1.95313 0,0.13021 0.0921,0.29855 0,0.39062 -0.0921,0.0921 -0.3324,-0.11646 -0.39063,0 -0.17469,0.34939 0,0.78125 0,1.17188 0,0.78125 0,1.5625 0,2.34375 0,0.13021 0,0.26042 0,0.39062 0,0.13021 -0.0921,0.29856 0,0.39063 0.52083,0.52083 0.39063,-0.65104 0.39063,0.39062 0,0.0947 -0.0126,1.15932 0,1.17188 0.0419,0.0419 1.05219,-0.15127 0.78125,0.39062 -0.13021,0.26042 -0.55143,0.56938 -0.78125,0.39063 -1.09257,-0.84978 -1.82292,-2.08333 -2.73438,-3.125"
       id="path1464"
       inkscape:connector-curvature="0" />
    <path
       style="fill:none;stroke:#000000;stroke-width:1px;stroke-linecap:butt;stroke-linejoin:miter;stroke-opacity:1"
       d="m 141.01563,177.73437 c -1.43229,0.65104 -2.81829,1.41546 -4.29688,1.95313 -0.12237,0.0445 0,-0.26042 0,-0.39063 0,-0.1302 0,-0.26041 0,-0.39062 0,-0.0947 -0.0126,-1.15931 0,-1.17188 0.52083,-0.52083 0.39063,0.65105 0.39063,-0.39062 0,-1.04167 0,-2.08333 0,-3.125 0,-0.17592 -0.0594,-1.05299 0,-1.17188 0.0824,-0.1647 0.30827,-0.22592 0.39062,-0.39062 0.15625,-0.3125 -0.15625,-0.85938 0,-1.17188 0.0823,-0.1647 0.30827,-0.22592 0.39063,-0.39062 0.0505,-0.101 0,-2.06687 0,-2.34375 0,-0.13021 -0.0921,-0.29855 0,-0.39063 0.0921,-0.0921 0.29855,0.0921 0.39062,0 0.0606,-0.0606 -0.0507,-1.01987 0,-1.17187 0.0921,-0.27621 0.29855,-0.50504 0.39063,-0.78125 0.0824,-0.24705 -0.18415,-0.59711 0,-0.78125 0.0921,-0.0921 0.29855,0.0921 0.39062,0 0.0799,-0.0799 -0.0774,-1.017 0,-1.17188 0.0823,-0.1647 0.30827,-0.22592 0.39063,-0.39062 0.0582,-0.11646 0,-0.26042 0,-0.39063 0,-0.27687 -0.0505,-2.24275 0,-2.34375 0.0824,-0.1647 0.30827,-0.22592 0.39062,-0.39062 0.11646,-0.23292 -0.11646,-0.54833 0,-0.78125 0.0823,-0.1647 0.30827,-0.22592 0.39063,-0.39063 0.12396,-0.24792 -0.12665,-1.82648 0,-1.95312 0.0921,-0.0921 0.29855,0.0921 0.39062,0 0.18414,-0.18414 -0.11646,-0.54833 0,-0.78125 0.0823,-0.1647 0.30827,-0.22592 0.39063,-0.39063 0.11646,-0.23292 -0.11647,-0.54832 0,-0.78125 0.0824,-0.1647 0.30827,-0.22592 0.39062,-0.39062 0.0582,-0.11646 -0.0921,-0.29855 0,-0.39063 0.0921,-0.0921 0.27416,0.0582 0.39063,0 0.10371,-0.0519 1.12001,-1.06815 1.17187,-1.17187 0.0582,-0.11646 -0.0582,-0.27416 0,-0.39063 0.0823,-0.1647 0.30827,-0.22592 0.39063,-0.39062 0.0582,-0.11646 -0.0582,-0.27416 0,-0.39063 0.0824,-0.1647 0.30827,-0.22592 0.39062,-0.39062 0.0582,-0.11646 -0.0921,-0.29855 0,-0.39063 0.0921,-0.0921 0.27416,0.0582 0.39063,0 0.1647,-0.0824 0.22592,-0.30827 0.39062,-0.39062 0.11646,-0.0582 0.26042,0 0.39063,0 0.26041,-0.13021 0.53899,-0.22912 0.78125,-0.39063 0.77385,0.039 0.18474,-0.57537 0.39062,-0.78125 0.18414,-0.18414 0.54833,0.11647 0.78125,0 0.1647,-0.0824 0.22592,-0.30827 0.39063,-0.39062 0.23292,-0.11646 0.54832,0.11646 0.78125,0 0.1647,-0.0823 0.22592,-0.30827 0.39062,-0.39063 0.11646,-0.0582 0.2671,0.0412 0.39063,0 0.27621,-0.0921 0.50503,-0.29855 0.78125,-0.39062 0.12352,-0.0412 0.27416,0.0582 0.39062,0 0.1647,-0.0823 0.22592,-0.30827 0.39063,-0.39063 0.11888,-0.0594 0.99595,0 1.17187,0 0.65104,0 1.30208,0 1.95313,0 0.1302,0 0.29855,0.0921 0.39062,0 0.0921,-0.0921 -0.0921,-0.29855 0,-0.39062 0.0921,-0.0921 0.26042,0 0.39063,0 0.1302,0 0.29855,-0.0921 0.39062,0 0.0921,0.0921 -0.11646,0.33239 0,0.39062 0.23292,0.11647 0.5342,-0.0824 0.78125,0 0.17469,0.0582 0.22592,0.30828 0.39063,0.39063 0.11646,0.0582 0.29855,-0.0921 0.39062,0 0.0921,0.0921 -0.0582,0.27416 0,0.39062 0.0808,0.16163 1.0063,1.0615 1.17188,1.17188 0.24225,0.1615 0.50503,0.29855 0.78125,0.39062 0.12352,0.0412 0.29855,-0.0921 0.39062,0 0.0921,0.0921 -0.0921,0.29856 0,0.39063 0.18414,0.18414 0.54833,-0.11646 0.78125,0 0.1647,0.0823 0.22592,0.30827 0.39063,0.39062 0.11646,0.0582 0.29855,-0.0921 0.39062,0 0.0921,0.0921 -0.11646,0.3324 0,0.39063 0.23292,0.11646 0.5342,-0.0823 0.78125,0 0.17469,0.0582 0.22592,0.30827 0.39063,0.39062 0.11646,0.0582 0.28228,-0.0722 0.39062,0 0.30643,0.20429 0.52083,0.52084 0.78125,0.78125 0.13021,0.13021 0.22592,0.30828 0.39063,0.39063 0.11646,0.0582 0.29855,-0.0921 0.39062,0 0.0921,0.0921 -0.0921,0.29855 0,0.39062 0.18414,0.18415 0.59711,-0.18414 0.78125,0 0.80822,0.80822 -1.23506,-0.0316 0.39063,0.78125 0.11646,0.0582 0.27416,-0.0582 0.39062,0 0.1647,0.0824 0.22592,0.30828 0.39063,0.39063 0.11646,0.0582 0.27416,-0.0582 0.39062,0 0.86369,0.43185 0.12122,0.24244 0.39063,0.78125 0.43184,0.86369 0.24243,0.12122 0.78125,0.39062 1.62568,0.81285 -0.4176,-0.027 0.39062,0.78125 0.0921,0.0921 0.29855,-0.0921 0.39063,0 0.0921,0.0921 -0.0582,0.27417 0,0.39063 0.0824,0.1647 0.30827,0.22592 0.39062,0.39062 0.0582,0.11647 0,0.26042 0,0.39063 0.13021,0.13021 0.30827,0.22592 0.39063,0.39062 0.0582,0.11647 -0.0921,0.29856 0,0.39063 0.0921,0.0921 0.27416,-0.0582 0.39062,0 0.1647,0.0823 0.26042,0.26042 0.39063,0.39062 0.1302,0.13021 0.30827,0.22593 0.39062,0.39063 0.20813,0.41626 -0.20813,0.36499 0,0.78125 0.0823,0.1647 0.30827,0.22592 0.39063,0.39062 0.15625,0.3125 -0.15625,0.85938 0,1.17188 0.0824,0.1647 0.30827,0.22592 0.39062,0.39062 0.0774,0.15488 -0.0799,1.09202 0,1.17188 0.0921,0.0921 0.33239,-0.11646 0.39063,0 0.17469,0.34939 -0.1747,0.82249 0,1.17187 0.0824,0.16471 0.33239,0.21594 0.39062,0.39063 0.0596,0.17867 -0.0869,1.38868 0,1.5625 0.0823,0.1647 0.30827,0.22592 0.39063,0.39062 0.0706,0.14127 0,1.68143 0,1.95313 0,0.0947 -0.0126,1.15931 0,1.17187 0.0921,0.0921 0.29855,-0.0921 0.39062,0 0.0921,0.0921 0,0.26042 0,0.39063 0,0.18418 -0.0177,1.93542 0,1.95312 0.0921,0.0921 0.26042,0 0.39063,0 0.1302,0 0.26041,0 0.39062,0"
       id="path1466"
       inkscape:connector-curvature="0" />
    <path
       style="fill:none;stroke:#000000;stroke-width:1px;stroke-linecap:butt;stroke-linejoin:miter;stroke-opacity:1"
       d="m 212.69531,175.97656 c -0.13021,0.26042 -0.28249,0.51092 -0.39062,0.78125 -0.0148,0.0369 0.0118,0.58594 0,0.58594 -0.0651,0 0,-0.13021 0,-0.19531 0,-0.0651 0,-0.13021 0,-0.19532 0,-0.78125 -0.0651,0.32553 0.19531,-0.19531 0.12005,-0.24009 0.0186,-0.57923 0.19531,-0.78125 0.30915,-0.35331 0.81122,-0.4807 1.17188,-0.78125 0.05,-0.0417 -0.046,-0.14927 0,-0.19531 0.046,-0.046 0.14927,0.046 0.19531,0 0.046,-0.046 -0.0291,-0.13708 0,-0.19531 0.0412,-0.0823 0.15414,-0.11296 0.19531,-0.19532 0.24053,-0.48104 -0.56694,0.17632 0.19532,-0.58593 0.046,-0.046 0.14927,0.046 0.19531,0 0.0921,-0.0921 -0.0582,-0.27417 0,-0.39063 0.0412,-0.0824 0.15413,-0.11296 0.19531,-0.19531 0.0291,-0.0582 -0.046,-0.14928 0,-0.19531 0.046,-0.046 0.14928,0.046 0.19531,0 0.046,-0.046 -0.0291,-0.13708 0,-0.19532 0.0412,-0.0824 0.15414,-0.11296 0.19532,-0.19531 0.0291,-0.0582 -0.0291,-0.13708 0,-0.19531 0.0412,-0.0823 0.15413,-0.11296 0.19531,-0.19531 0.0291,-0.0582 -0.046,-0.14928 0,-0.19532 0.046,-0.046 0.14927,0.046 0.19531,0 0.0921,-0.0921 -0.0921,-0.29855 0,-0.39062 0.046,-0.046 0.14928,0.046 0.19531,0 0.046,-0.046 -0.0291,-0.13708 0,-0.19531 0.64777,-0.64777 -0.0921,0.18414 0.19532,-0.39063 0.11718,-0.23437 0.46875,-0.35156 0.58593,-0.58594 0.0291,-0.0582 -0.046,-0.14927 0,-0.19531 0.046,-0.046 0.14928,0.046 0.19532,0 0.10293,-0.10294 0.11456,-0.2695 0.19531,-0.39062 0.0511,-0.0766 0.15413,-0.11296 0.19531,-0.19532 0.0291,-0.0582 -0.0291,-0.13708 0,-0.19531 0.11719,-0.23437 0.46875,-0.35156 0.58594,-0.58594 0.0291,-0.0582 -0.046,-0.14927 0,-0.19531 0.046,-0.046 0.14927,0.046 0.19531,0 0.046,-0.046 -0.0291,-0.13708 0,-0.19531 0.0412,-0.0823 0.15414,-0.11296 0.19531,-0.19531 0.0291,-0.0582 -0.046,-0.14928 0,-0.19532 0.046,-0.046 0.14928,0.046 0.19532,0 0.046,-0.046 -0.046,-0.14927 0,-0.19531 0.046,-0.046 0.14927,0.046 0.19531,0 0.0921,-0.0921 -0.0921,-0.29855 0,-0.39062 0.046,-0.046 0.14927,0.046 0.19531,0 0.046,-0.046 -0.046,-0.14928 0,-0.19532 0.046,-0.046 0.13021,0 0.19531,0 0,-0.0651 -0.046,-0.14927 0,-0.19531 0.046,-0.046 0.14928,0.046 0.19532,0 0.046,-0.046 -0.046,-0.14927 0,-0.19531 0.046,-0.046 0.13708,0.0291 0.19531,0 0.0824,-0.0412 0.11296,-0.15414 0.19531,-0.19531 0.0582,-0.0291 0.13708,0.0291 0.19531,0 0.0823,-0.0412 0.11296,-0.15414 0.19532,-0.19532 0.0582,-0.0291 0.13708,0.0291 0.19531,0 0.0824,-0.0412 0.11296,-0.15413 0.19531,-0.19531 0.0582,-0.0291 0.13355,0.0206 0.19531,0 0.13811,-0.046 0.25252,-0.14927 0.39063,-0.19531 0.0618,-0.0206 0.13021,0 0.19531,0 0.18336,0 0.86465,0.0373 0.97656,0 0.0873,-0.0291 0.11296,-0.15414 0.19532,-0.19531 0.11646,-0.0582 0.26709,0.0412 0.39062,0 0.13811,-0.046 0.25252,-0.14928 0.39063,-0.19532 0.11645,-0.0388 0.98264,0 1.17187,0 0.52083,0 1.04167,0 1.5625,0 0.088,0 0.5265,-0.0297 0.58594,0 0.0824,0.0412 0.11296,0.15414 0.19531,0.19532 0.11646,0.0582 0.27416,-0.0582 0.39063,0 0.0824,0.0412 0.11296,0.15413 0.19531,0.19531 0.15625,0.0781 0.42969,-0.0781 0.58594,0 0.0824,0.0412 0.11296,0.15414 0.19531,0.19531 0.0582,0.0291 0.13708,-0.0291 0.19531,0 0.0823,0.0412 0.11296,0.15414 0.19531,0.19531 0.0582,0.0291 0.13021,0 0.19532,0 0.1302,0.0651 0.26949,0.11457 0.39062,0.19532 0.0766,0.0511 0.13021,0.13021 0.19531,0.19531 0.0651,0.0651 0.15414,0.11296 0.19532,0.19531 0.0582,0.11646 -0.0921,0.29856 0,0.39063 0.046,0.046 0.14927,-0.046 0.19531,0 0.046,0.046 -0.046,0.14927 0,0.19531 0.13268,0.13268 0.38843,-0.1997 0.58594,0.19531 0.0291,0.0582 -0.0291,0.13708 0,0.19531 0.0412,0.0824 0.15413,0.11297 0.19531,0.19532 0.0781,0.15625 -0.0781,0.42968 0,0.58593 0.0412,0.0824 0.15413,0.11297 0.19531,0.19532 0.0257,0.0514 0,0.67911 0,0.78125 0,0.13584 0.0353,0.90593 0,0.97656 -0.0412,0.0823 -0.15414,0.11296 -0.19531,0.19531 -0.0291,0.0582 0,0.13021 0,0.19531 0,0.0651 0,0.13021 0,0.19532 0,0.32552 0,0.65104 0,0.97656 0,0.0651 0,0.13021 0,0.19531 0,0.0651 0.0291,0.13708 0,0.19531 -0.0412,0.0824 -0.15414,0.11297 -0.19531,0.19532 -0.0291,0.0582 0,0.13021 0,0.19531 0,0.0651 0,0.13021 0,0.19531 0,0.39063 0,0.78125 0,1.17188 0,0.0651 0.046,0.14927 0,0.19531 -0.046,0.046 -0.14928,-0.046 -0.19532,0 -0.0275,0.0275 -0.02,0.54587 0,0.58594 0.0412,0.0824 0.15414,0.11296 0.19532,0.19531 0.0257,0.0514 0,0.67912 0,0.78125 0,0.52083 0,1.04167 0,1.5625 0,0.22796 -0.0381,1.0195 0,1.17187 0.0353,0.14124 0.14927,0.25252 0.19531,0.39063 0.008,0.0251 0.008,0.56976 0,0.58594 -0.40642,0.81284 0.0135,-0.2088 -0.39063,0.19531 -0.047,0.047 0.047,0.73425 0,0.78125 -0.046,0.046 -0.14927,-0.046 -0.19531,0 -0.046,0.046 0,0.13021 0,0.19531 0,0.0651 0,0.13021 0,0.19531 0,0.0474 -0.006,0.57966 0,0.58594 0.046,0.046 0.14928,-0.046 0.19531,0 0.006,0.006 0,0.53857 0,0.58594 0,0.0651 0,0.13021 0,0.19531 0,0.0651 -0.046,0.14928 0,0.19531 0.046,0.046 0.2159,0.0618 0.19532,0 -0.0742,-0.22269 -0.26042,-0.39062 -0.39063,-0.58593"
       id="path1468"
       inkscape:connector-curvature="0" />
    <path
       style="fill:none;stroke:#000000;stroke-width:1px;stroke-linecap:butt;stroke-linejoin:miter;stroke-opacity:1"
       d="m 144.14063,176.17187 c 0.71614,-0.71614 1.46407,-1.40186 2.14843,-2.14843 0.009,-0.009 0,-0.53651 0,-0.58594 0,-0.13844 0.0252,-1.12138 0,-1.17188 -0.0412,-0.0824 -0.15413,-0.11296 -0.19531,-0.19531 -0.0219,-0.0438 0,-0.73484 0,-0.78125 0,-0.2307 -0.0387,-1.05573 0,-1.17187 0.0291,-0.0873 0.15414,-0.11296 0.19531,-0.19532 0.0252,-0.0505 0,-1.03343 0,-1.17187 0,-0.0651 0.046,-0.14928 0,-0.19531 -0.046,-0.046 -0.14927,0.046 -0.19531,0 -0.046,-0.046 0,-0.13021 0,-0.19532 0,-0.39062 0,-0.78125 0,-1.17187 0,-0.0651 0.046,-0.14928 0,-0.19531 -0.046,-0.046 -0.14928,0.046 -0.19531,0 -0.006,-0.006 0,-0.53857 0,-0.58594 0,-0.32552 0,-0.65104 0,-0.97656 0,-0.0651 -0.046,-0.14928 0,-0.19532 0.046,-0.046 0.14927,0.046 0.19531,0 0.0977,-0.0977 -0.0977,-0.48828 0,-0.58593 0.046,-0.046 0.14928,0.046 0.19531,0 0.046,-0.046 -0.046,-0.14928 0,-0.19532 0.046,-0.046 0.14928,0.046 0.19532,0 0.046,-0.046 -0.0291,-0.13708 0,-0.19531 0.0412,-0.0824 0.1302,-0.13021 0.19531,-0.19531 0.0651,-0.0651 0.11296,-0.15414 0.19531,-0.19531 0.0582,-0.0291 0.14928,0.046 0.19531,0 0.046,-0.046 -0.0291,-0.13708 0,-0.19532 0.40642,-0.81284 -0.0135,0.2088 0.39063,-0.19531 0.40411,-0.40411 -0.61753,0.0158 0.19531,-0.39062 0.0582,-0.0291 0.13708,0.0291 0.19531,0 0.1647,-0.0823 0.22593,-0.30828 0.39063,-0.39063 0.0582,-0.0291 0.13708,0.0291 0.19531,0 0.64777,-0.64777 -0.18414,0.0921 0.39063,-0.19531 0.0824,-0.0412 0.11296,-0.15414 0.19531,-0.19531 0.0582,-0.0291 0.13021,0 0.19531,0 0.13021,0 0.2671,0.0412 0.39063,0 0.0873,-0.0291 0.11296,-0.15414 0.19531,-0.19532 0.0582,-0.0291 0.13708,0.0291 0.19531,0 0.0823,-0.0412 0.11296,-0.15413 0.19531,-0.19531 0.0581,-0.0291 1.08972,0 1.17188,0 0.39062,0 0.78125,0 1.17187,0 0.0651,0 0.14928,0.046 0.19532,0 0.046,-0.046 -0.046,-0.14927 0,-0.19531 0.046,-0.046 0.1302,0 0.19531,0 0.0651,0 0.13021,0 0.19531,0 0.39063,0 0.78125,0 1.17188,0 0.1302,0 0.26041,0 0.39062,0 0.0651,0 0.13708,-0.0291 0.19531,0 0.0823,0.0412 0.11296,0.15414 0.19532,0.19531 0.12321,0.0616 0.85334,-0.0616 0.97656,0 0.0824,0.0412 0.11296,0.15414 0.19531,0.19531 0.13491,0.0675 0.908,-0.0686 0.97656,0 0.046,0.046 -0.046,0.14928 0,0.19532 0.0399,0.0399 0.5085,-0.0387 0.58594,0 0.0823,0.0412 0.11296,0.15413 0.19531,0.19531 0.0582,0.0291 0.13021,0 0.19532,0 0.0651,0.0651 0.11296,0.15414 0.19531,0.19531 0.11646,0.0582 0.27416,-0.0582 0.39062,0 0.0823,0.0412 0.11296,0.15414 0.19532,0.19531 0.0582,0.0291 0.14927,-0.046 0.19531,0 0.046,0.046 -0.0291,0.13709 0,0.19532 0.0412,0.0824 0.13021,0.13021 0.19531,0.19531 0.0651,0.0651 0.13021,0.13021 0.19531,0.19531 0.26042,0.26042 0.52084,0.52084 0.78125,0.78125 0.0651,0.0651 0.15414,0.11296 0.19532,0.19531 0.0291,0.0582 -0.046,0.14928 0,0.19532 0.046,0.046 0.14927,-0.046 0.19531,0 0.13008,0.13008 -0.13008,0.26054 0,0.39062 0.046,0.046 0.14927,-0.046 0.19531,0 0.0303,0.0303 -0.0253,0.50994 0,0.58594 0.47158,1.41473 -0.0563,-0.30793 0.39063,0.58594 0.0582,0.11646 -0.0582,0.27416 0,0.39062 0.0412,0.0823 0.15413,0.11296 0.19531,0.19531 0.0576,0.11524 -0.0448,0.4516 0,0.58594 0.046,0.13811 0.14927,0.25252 0.19531,0.39063 0.0412,0.12352 -0.0582,0.27416 0,0.39062 0.0412,0.0823 0.15414,0.11296 0.19531,0.19531 0.0582,0.11647 -0.0921,0.29856 0,0.39063 0.046,0.046 0.14928,-0.046 0.19532,0 0.046,0.046 -0.0291,0.13708 0,0.19531 0.0412,0.0823 0.15413,0.11296 0.19531,0.19531 0.0614,0.12276 -0.0614,0.6585 0,0.78125 0.0412,0.0824 0.15413,0.11297 0.19531,0.19532 0.0387,0.0774 -0.0399,0.54601 0,0.58593 0.046,0.046 0.14928,-0.046 0.19531,0 0.0977,0.0977 -0.0977,0.48829 0,0.58594 0.046,0.046 0.14928,-0.046 0.19532,0 0.046,0.046 -0.0291,0.13708 0,0.19531 0.0412,0.0824 0.15413,0.11297 0.19531,0.19532 0.0291,0.0582 -0.0291,0.13708 0,0.19531 0.0412,0.0823 0.15413,0.11296 0.19531,0.19531 0.0582,0.11646 -0.0921,0.29856 0,0.39063 0.046,0.046 0.14928,-0.046 0.19531,0 0.047,0.047 -0.047,0.73425 0,0.78125 0.046,0.046 0.14928,-0.046 0.19532,0 0.26041,0.26041 -0.26042,0.26041 0,0 0.046,-0.046 0.22442,0.0582 0.19531,0 -0.0823,-0.1647 -0.26042,-0.26042 -0.39063,-0.39063"
       id="path1470"
       inkscape:connector-curvature="0" />
    <path
       style="fill:none;stroke:#000000;stroke-width:2.13543307;stroke-linecap:butt;stroke-linejoin:miter;stroke-opacity:1;stroke-miterlimit:4;stroke-dasharray:none"
       d="m 224.21875,171.67969 c -1.96716,-0.42868 -0.31751,0.70813 -0.58594,0.97656 -0.046,0.046 -0.14927,-0.046 -0.19531,0 -0.046,0.046 0.0291,0.13708 0,0.19531 -0.0412,0.0823 -0.15414,0.11296 -0.19531,0.19531 -0.0291,0.0582 0.046,0.14928 0,0.19532 -0.046,0.046 -0.14928,-0.046 -0.19531,0 -0.046,0.046 0.0291,0.13708 0,0.19531 -0.0412,0.0823 -0.15414,0.11296 -0.19532,0.19531 -0.0582,0.11646 0.0921,0.29856 0,0.39063 -0.046,0.046 -0.14927,-0.046 -0.19531,0 -0.0399,0.0399 0.0387,0.50849 0,0.58593 -0.0412,0.0824 -0.15414,0.11297 -0.19531,0.19532 -0.0582,0.11646 0.0582,0.27416 0,0.39062 -0.0412,0.0823 -0.15414,0.11296 -0.19531,0.19531 -0.0291,0.0582 0.046,0.14928 0,0.19532 -0.046,0.046 -0.14928,-0.046 -0.19532,0 -0.046,0.046 0.046,0.14927 0,0.19531 -0.046,0.046 -0.14927,-0.046 -0.19531,0 -0.0921,0.0921 0.0582,0.27416 0,0.39062 -0.0412,0.0824 -0.15414,0.11297 -0.19531,0.19532 -0.0291,0.0582 0.0291,0.13708 0,0.19531 -0.0412,0.0823 -0.15414,0.11296 -0.19531,0.19531 -0.0582,0.11646 0.0921,0.29856 0,0.39063 -0.046,0.046 -0.14928,-0.046 -0.19532,0 -0.0977,0.0977 0.0977,0.48828 0,0.58593 -0.046,0.046 -0.14927,-0.046 -0.19531,0 -0.046,0.046 0,0.13021 0,0.19532 0,0.0651 0,0.13021 0,0.19531 0,0.54086 -0.19531,-0.15023 -0.19531,0.39062 0,0.0651 0,0.13021 0,0.19532 0,0.0651 -0.046,0.24135 0,0.19531 0.88382,-0.88382 -1.72615,-1.92778 2.14844,1.17187"
       id="path1472"
       inkscape:connector-curvature="0" />
    <path
       style="fill:none;stroke:#000000;stroke-width:2.13543307;stroke-linecap:butt;stroke-linejoin:miter;stroke-opacity:1;stroke-miterlimit:4;stroke-dasharray:none"
       d="m 152.73438,168.16406 c 0.26041,0.19531 0.55107,0.35576 0.78125,0.58594 0.046,0.046 -0.0291,0.13708 0,0.19531 0.0412,0.0823 0.15413,0.11296 0.19531,0.19531 0.0291,0.0582 -0.0291,0.13709 0,0.19532 0.0824,0.1647 0.30827,0.22592 0.39062,0.39062 0.0781,0.15625 -0.0781,0.42969 0,0.58594 0.0412,0.0823 0.15414,0.11296 0.19532,0.19531 0.0353,0.0706 0,0.84072 0,0.97656 0,0.0651 -0.046,0.14928 0,0.19532 0.046,0.046 0.14927,-0.046 0.19531,0 0.0921,0.0921 -0.0582,0.27416 0,0.39062 0.0412,0.0823 0.15413,0.11296 0.19531,0.19531 0.0291,0.0582 -0.0291,0.13709 0,0.19532 0.0412,0.0824 0.15414,0.11296 0.19531,0.19531 0.0291,0.0582 0.0651,0.19531 0,0.19531 -0.0651,0 0,-0.13021 0,-0.19531"
       id="path1476"
       inkscape:connector-curvature="0" />
    <path
       style="fill:none;stroke:#000000;stroke-width:1px;stroke-linecap:butt;stroke-linejoin:miter;stroke-opacity:1"
       d="m 181.64063,196.875 c -0.0651,0.26042 -0.14267,0.51803 -0.19532,0.78125 -0.0255,0.12768 0,0.26042 0,0.39062 0,0.26042 0,0.52084 0,0.78125 0,0.84636 0,1.69271 0,2.53907 0,0.13021 0,0.26041 0,0.39062 0,0.0651 0.0651,0.19531 0,0.19531 -0.0651,0 0,-0.1302 0,-0.19531 0,-0.26041 0,-0.52083 0,-0.78125"
       id="path1478"
       inkscape:connector-curvature="0" />
    <path
       style="fill:none;stroke:#000000;stroke-width:1px;stroke-linecap:butt;stroke-linejoin:miter;stroke-opacity:1"
       d="m 190.03906,197.65625 c 0,0.32552 -0.0535,0.65547 0,0.97656 0.0151,0.0908 0.15414,0.11296 0.19532,0.19531 0.0648,0.12962 -0.0631,0.98245 0,1.17188 0.06,0.17994 0.26885,0.36531 0.19531,0.58594 -0.046,0.1381 -0.14928,0.25252 -0.19531,0.39062 -0.0563,0.16886 0.0621,0.85228 0,0.97656 -0.0412,0.0824 -0.1662,0.10797 -0.19532,0.19532 -0.0618,0.18529 0,0.39062 0,0.58593 0,0.0651 0,0.13021 0,0.19532 0,0.0651 0.0651,0.19531 0,0.19531 -0.0651,0 0,-0.13021 0,-0.19531 0,-0.0651 -0.046,-0.14928 0,-0.19532 0.046,-0.046 0.19532,0.0651 0.19532,0 0,-0.0921 -0.13021,-0.1302 -0.19532,-0.19531"
       id="path1480"
       inkscape:connector-curvature="0" />
  </g>
</svg>
