<?xml version="1.0" encoding="UTF-8" standalone="no"?>
<!-- Created with Inkscape (http://www.inkscape.org/) -->

<svg
   xmlns:dc="http://purl.org/dc/elements/1.1/"
   xmlns:cc="http://creativecommons.org/ns#"
   xmlns:rdf="http://www.w3.org/1999/02/22-rdf-syntax-ns#"
   xmlns:svg="http://www.w3.org/2000/svg"
   xmlns="http://www.w3.org/2000/svg"
   xmlns:sodipodi="http://sodipodi.sourceforge.net/DTD/sodipodi-0.dtd"
   xmlns:inkscape="http://www.inkscape.org/namespaces/inkscape"
   width="210mm"
   height="297mm"
   viewBox="0 0 210 297"
   version="1.1"
   id="svg8"
   inkscape:version="0.92.4 5da689c313, 2019-01-14"
   sodipodi:docname="young_woodcutter.svg">
  <defs
     id="defs2" />
  <sodipodi:namedview
     id="base"
     pagecolor="#ffffff"
     bordercolor="#666666"
     borderopacity="1.0"
     inkscape:pageopacity="0.0"
     inkscape:pageshadow="2"
     inkscape:zoom="1.4"
     inkscape:cx="252.32194"
     inkscape:cy="744.49969"
     inkscape:document-units="mm"
     inkscape:current-layer="layer1"
     showgrid="false"
     inkscape:window-width="1892"
     inkscape:window-height="1079"
     inkscape:window-x="28"
     inkscape:window-y="0"
     inkscape:window-maximized="1" />
  <metadata
     id="metadata5">
    <rdf:RDF>
      <cc:Work
         rdf:about="">
        <dc:format>image/svg+xml</dc:format>
        <dc:type
           rdf:resource="http://purl.org/dc/dcmitype/StillImage" />
        <dc:title></dc:title>
      </cc:Work>
    </rdf:RDF>
  </metadata>
  <g
     inkscape:label="Layer 1"
     inkscape:groupmode="layer"
     id="layer1">
    <path
       style="fill:#ff7f2a;stroke:#64503c;stroke-width:0.86;stroke-linecap:butt;stroke-linejoin:miter;stroke-opacity:1;stroke-miterlimit:4;stroke-dasharray:none"
       d="m 86.060787,17.970613 c -4.862031,4.008935 -6.1472,9.167686 -6.1472,15.768902 0,1.930345 -0.422592,6.526414 0.80181,7.750816 0.578588,0.57859 -0.374129,2.993517 0,3.741774 0.501049,1.002099 0.446455,2.141175 0.801809,3.207234 0.387686,1.163061 2.23352,4.104405 3.207234,5.078122 0.370446,0.370445 1.068279,0.532942 1.336347,1.069078 0.316211,0.632423 1.515634,2.257679 2.138156,2.672694 0.455549,0.303699 1.594895,1.064717 2.138156,1.336346 0.562806,0.281406 7.46348,0.740008 8.285356,0.534541 1.980435,-0.49511 4.073445,-1.268725 5.879935,-1.870887 0.71414,-0.238049 3.87119,-3.037028 4.81085,-3.741772 0.58299,-0.437245 1.71001,-0.640932 2.13815,-1.069078 1.11753,-1.117534 2.45937,-3.36908 2.93997,-4.810853 1.56144,-4.684315 0.43864,-10.032823 -2.13816,-13.898015 -0.63608,-0.954114 -0.95123,-2.287574 -1.87089,-3.207234 -1.04755,-1.047549 -2.59229,-1.616646 -3.4745,-2.939965 -0.37142,-0.55713 -0.93549,-1.470025 -1.33635,-1.870887 -0.24136,-0.24136 -1.0179,-0.375316 -1.33635,-0.534539 -0.32072,-0.160362 -0.48108,-0.641447 -0.8018,-0.801808 -1.54092,-0.770459 -3.42036,-1.745697 -4.810855,-2.672696 -0.697254,-0.464835 -1.48222,-1.542919 -2.138156,-1.870886 -1.005245,-0.502622 -1.942479,-1.372144 -2.939966,-1.870887 -0.561184,-0.280592 -4.481745,-1.398183 -5.078121,-0.801809 -0.416015,0.416016 -1.86871,0.265095 -2.405425,0.801809 -0.42259,0.42259 -0.485063,1.096825 -0.801809,1.603617 -0.266044,0.425672 -0.867138,0.867137 -1.069078,1.069078 -0.979882,0.979881 -2.210242,3.716266 -2.939966,4.810852"
       id="path833"
       inkscape:connector-curvature="0" />
    <path
       style="fill:#000000;stroke:#000000;stroke-width:0.26458332px;stroke-linecap:butt;stroke-linejoin:miter;stroke-opacity:1"
       d="m 86.060787,17.970613 c -3.627273,-3.231921 -3.500009,-2.647191 -5.612659,-0.534539 -1.861955,1.861953 -2.405428,3.739761 -2.405428,6.681738 0,0.603993 0.18932,1.570202 0,2.138156 -0.228719,0.686156 -0.817451,4.260668 -0.267269,4.810851 0.508347,0.508347 8.019931,-2.407272 8.552625,-2.939965 0.113427,-0.113425 0.956844,-1.603616 1.069078,-1.603616 1.347554,0 -0.09769,7.556815 5.34539,3.474503 1.025684,-0.769263 2.552615,-2.312448 2.939965,-3.474503 0.116602,-0.349809 0.199449,-1.603617 0.534541,-1.603617 0.09305,0 2.004451,6.280903 2.939962,5.345389 0.479211,-0.479208 1.021928,-1.509313 1.336348,-2.138156 0.16968,-0.33935 -0.1184,-0.981134 0,-1.336347 0.33932,-1.017971 0.78885,-1.590653 1.33635,-2.138156 0.0891,-0.08909 0.17818,-0.356359 0.26727,-0.267269 1.12347,1.123467 3.40522,2.603412 4.81085,4.009043 0.76489,0.764889 0.81596,3.193084 1.60362,2.405425 0.89839,-0.898393 0.80181,-4.343819 0.80181,-5.879929 0,-2.586707 -0.60657,-4.081068 -2.13816,-5.612661 -0.49407,-0.494073 -0.82356,-1.625372 -1.33635,-2.138156 -0.85955,-0.85955 -2.22671,-1.15763 -2.93996,-1.870886 -0.34947,-0.349467 -10.579995,0.801808 -12.561671,0.801808 -0.189741,0 -4.810852,1.402368 -4.810852,0.801809 0,-0.398422 0.437909,0.682552 0.53454,1.069078"
       id="path835"
       inkscape:connector-curvature="0" />
    <path
       style="fill:#ffffff;stroke:#ffffff;stroke-width:0.26458332px;stroke-linecap:butt;stroke-linejoin:miter;stroke-opacity:1"
       d="m 91.138908,37.214018 c -4.047447,-1.83512 -5.150884,1.190824 -3.741774,4.009044 0.591817,1.183632 2.814452,0.943565 3.207234,1.336347 0.624925,0.624924 2.23843,0.166997 2.672696,-0.267269 0.713463,-0.713462 -0.53454,-3.152574 -0.53454,-3.474503 0,-0.348742 -1.237014,-1.114817 -1.603616,-1.603619 z"
       id="path837"
       inkscape:connector-curvature="0" />
    <path
       style="fill:#ffffff;stroke:#ffffff;stroke-width:0.26458332px;stroke-linecap:butt;stroke-linejoin:miter;stroke-opacity:1"
       d="m 103.16604,37.748559 c -1.1699,-0.696974 -2.95686,-0.784921 -3.741776,0 -1.090642,1.090639 -2.073466,7.461983 1.069076,6.414468 0.0539,-0.01799 0.98016,0.08892 1.06908,0 1.56158,-1.561587 4.39601,-1.631495 2.67269,-5.078121 -0.6032,-1.206408 -1.03526,-1.341985 -2.67269,-1.069078"
       id="path839"
       inkscape:connector-curvature="0" />
    <path
       style="fill:#d45500;stroke:#825c25;stroke-width:0.26458332px;stroke-linecap:butt;stroke-linejoin:miter;stroke-opacity:1"
       d="m 95.147952,44.430296 c -1.146107,-0.394621 -1.174306,1.603616 -1.33635,1.603616 -0.541912,0 0.267272,-1.061704 0.267272,-1.603616 0,-0.125992 -0.178181,0.178178 -0.267272,0.267269 -0.539837,0.53984 -1.809409,0.678854 -2.138156,1.336347 -0.526844,1.053692 -1.763411,3.047439 -0.801807,4.009043 0.169532,0.169534 -0.111265,0.846553 0,1.069078 0.263261,0.526526 0.542552,0.805815 1.069079,1.069078 0.586419,0.293211 6.336167,0.306419 6.949006,0 0.814077,-0.407038 1.845026,-1.310486 2.405426,-1.870884 4.26596,-4.265962 -1.552172,-4.224867 -3.207236,-5.879931 -0.1339,-0.133903 -0.89386,-0.09205 -1.069078,-0.267269 -0.644776,-0.644776 1.248487,-0.801809 1.33635,-0.801809"
       id="path841"
       inkscape:connector-curvature="0" />
    <path
       style="fill:#338000;stroke:#000000;stroke-width:0.26458332px;stroke-linecap:butt;stroke-linejoin:miter;stroke-opacity:1"
       d="m 89.869377,38.851043 c -0.131596,-0.05357 -0.16401,-0.16401 -0.23386,-0.23386 -0.01574,-0.01574 -0.05107,0.01574 -0.06682,0 -0.183335,-0.183335 -0.605496,-0.114861 -0.835216,0 -0.11811,0.05906 -0.166923,0.233678 -0.233862,0.334087 -0.08941,0.134115 -0.215913,0.246835 -0.267269,0.400905 -0.04488,0.134625 -0.01021,0.295068 -0.03341,0.434313 -0.0271,0.162618 -0.02943,0.377439 0.03341,0.534538 0.04733,0.118332 0.205801,0.258185 0.300678,0.334086 0.539088,0.431271 1.191561,0.779542 1.904296,0.601359 0.401598,-0.100402 0.559641,-0.643255 0.668173,-0.968854 0.02495,-0.07485 -0.01159,-0.168418 -0.03341,-0.23386 -0.02339,-0.07016 0.02339,-0.163703 0,-0.23386 -0.101774,-0.305324 -0.138469,-0.738217 -0.434313,-0.935445 -0.127722,-0.08515 -0.301776,-0.122865 -0.434314,-0.167042 -0.13195,-0.04398 -0.359526,0 -0.501128,0 -0.04838,0 -0.15811,0.02117 -0.200454,0 -0.0315,-0.01574 -0.100224,-0.06863 -0.100224,-0.03341 0,0.0803 0.09772,0.128625 0.133633,0.200451"
       id="path853"
       inkscape:connector-curvature="0" />
    <path
       style="fill:#338000;stroke:#000000;stroke-width:0.26458332px;stroke-linecap:butt;stroke-linejoin:miter;stroke-opacity:1"
       d="m 101.29515,39.452401 c -0.54188,0.09354 -0.80989,0.417058 -1.06908,0.935443 -0.047,0.09407 -0.0334,0.291478 -0.0334,0.400904 0,0.05815 -0.065,0.137208 -0.0334,0.200451 0.16887,0.337757 0.35409,0.711586 0.73499,0.902036 0.0735,0.03674 0.48819,0.05388 0.50113,0.06682 0.0437,0.04373 0.0685,7.94e-4 0.13363,0.03341 0.29067,0.145336 0.63038,-0.04162 0.86863,-0.200454 0.0658,-0.0439 0.18464,-0.05101 0.23386,-0.100226 0.13778,-0.137782 0.31021,-0.353161 0.4009,-0.534538 0.0212,-0.04233 -0.0229,-0.102047 -0.0334,-0.133636 -0.0191,-0.05731 0.0267,-0.146973 0,-0.200451 -0.13285,-0.2657 -0.13329,-0.567719 -0.43431,-0.7684 -0.17756,-0.118369 -0.41414,-0.238273 -0.60136,-0.300678 -0.0317,-0.01056 -0.0703,0.01495 -0.10022,0 -0.10402,-0.05201 -0.36996,-0.115557 -0.43432,-0.167045 -0.0492,-0.03935 -0.0708,-0.128801 -0.13363,-0.133633 -0.10534,-0.0081 -0.20045,0.06682 -0.30068,0.100225"
       id="path855"
       inkscape:connector-curvature="0" />
    <path
       style="fill:#17280b;stroke:#000000;stroke-width:0.26458332px;stroke-linecap:butt;stroke-linejoin:miter;stroke-opacity:1"
       d="m 89.735744,39.819897 c -0.120762,-0.06947 -0.385967,-0.130106 -0.467723,0.03341 -0.0218,0.04358 0,0.154091 0,0.200451 0,0.07121 -0.03302,0.23464 0,0.300678 0.02278,0.04558 0.154509,0.103007 0.200454,0.133635 0.268266,0.178846 0.564435,0.137145 0.734988,-0.03341 0.102288,-0.102288 0.124675,-0.677135 0,-0.80181 -0.04973,-0.04973 -0.126415,-0.0298 -0.200451,-0.06682 -0.178149,-0.08907 -0.18179,0.03441 -0.267268,0.233863 z"
       id="path857"
       inkscape:connector-curvature="0" />
    <path
       style="fill:#17280b;stroke:#000000;stroke-width:0.26458332px;stroke-linecap:butt;stroke-linejoin:miter;stroke-opacity:1"
       d="m 101.79628,40.621704 c -0.10742,0.0045 -0.18551,0.01495 -0.23386,-0.03341 -0.14451,-0.144507 -0.55029,0.168945 -0.4009,0.46772 0.0313,0.06268 0.0429,0.01429 0.10022,0.03341 0.0893,0.02976 0.17565,0.103095 0.26727,0.133636 0.1812,0.0604 0.60556,-0.29228 0.53454,-0.434314 -0.0819,-0.163809 -0.51715,-0.242554 -0.66817,-0.167044 -0.0357,0.01786 -0.11576,0.222575 -0.13364,0.267271"
       id="path859"
       inkscape:connector-curvature="0" />
    <path
       style="fill:#c87137;stroke:#000d08;stroke-width:0.26458332px;stroke-linecap:butt;stroke-linejoin:miter;stroke-opacity:1"
       d="m 92.074351,55.321527 c 0.558699,0.287592 1.194718,-0.184991 1.77066,-0.267268 0.266507,-0.03807 0.533247,-0.03698 0.801809,-0.06682 0.3223,-0.03581 0.652291,-0.200451 0.968851,-0.200451 0.389713,0 0.788125,0.02103 1.169305,-0.03341 0.273064,-0.03901 0.539319,0.02069 0.80181,-0.06682 0.103893,-0.03463 0.241514,0.05861 0.367495,0.03341 0.284287,-0.05686 1.094695,-0.321278 1.336347,-0.200451 0.269192,0.134596 0.400905,0.09892 0.400905,0.46772 0,0.05656 0.02474,0.184367 0,0.233862 -0.04837,0.09673 -0.114605,0.348464 -0.167045,0.400905 -0.36657,0.366569 -1.210336,0.725125 -1.870885,0.835215 -0.261191,0.04353 -0.620696,0.184627 -0.868627,0.267272 -0.15382,0.05127 -1.524187,0.08216 -1.670433,0.03341 -0.326528,-0.108842 -0.643351,-0.158768 -0.968854,-0.267269 -0.415478,-0.138493 -1.521497,-0.218559 -1.770661,-0.467722 -0.01643,-0.01643 -0.20793,-0.159562 -0.167042,-0.200451 0.05309,-0.05309 0.06689,-0.133707 0.133633,-0.200451 0.0068,-0.0068 0.167805,-0.100986 0.200454,-0.133636 0.06652,-0.06652 0.133636,-0.184843 0.133636,-0.167045 0,0.02228 0,0.04455 0,0.06682"
       id="path867"
       inkscape:connector-curvature="0" />
    <path
       style="fill:none;stroke:#000000;stroke-width:0.26458332px;stroke-linecap:butt;stroke-linejoin:miter;stroke-opacity:1"
       d="m 94.021575,59.441963 c -0.09449,0.125992 -0.21305,0.237114 -0.283482,0.377976 -0.04183,0.08366 0.188989,1.401797 0.188989,1.700892 0,1.691759 0.113059,3.611004 -0.283482,5.197174 -0.131284,0.525137 0.0469,1.229113 -0.188987,1.700892"
       id="path877"
       inkscape:connector-curvature="0" />
    <path
       style="fill:none;stroke:#000000;stroke-width:0.26458332px;stroke-linecap:butt;stroke-linejoin:miter;stroke-opacity:1"
       d="m 98.462797,59.630952 c 0.10572,0.164955 -0.06286,0.472882 0,0.661459 0.179245,0.537731 0.408649,2.959986 0.566963,3.118302 0.206205,0.206203 -0.04655,1.040826 0.0945,1.322917 0.267449,0.5349 0.661459,2.433566 0.661459,3.118305"
       id="path879"
       inkscape:connector-curvature="0" />
    <path
       style="fill:none;stroke:#000000;stroke-width:0.26458332px;stroke-linecap:butt;stroke-linejoin:miter;stroke-opacity:1"
       d="m 99.785716,67.851935 c 0.106908,-0.142545 0.251984,-0.503968 0.377974,-0.377979 0.0284,0.02844 -1.163644,0.629068 -1.228424,0.661458 -0.154061,0.07703 -0.203002,0.297499 -0.283482,0.377979 -0.130233,0.130233 -0.492109,0.19881 -0.661459,0.28348 -0.436925,0.218464 -0.739486,0.653227 -1.133927,0.850447 -0.33106,0.165529 -0.568574,0.662263 -0.944941,0.850448 -0.03137,0.01569 -0.366172,0.377976 -0.283482,0.377976 0.04474,0 -0.276983,-0.276983 -0.283483,-0.283483 -0.286991,-0.286991 -0.756356,-0.803807 -1.039434,-1.228423 -0.246356,-0.369536 -0.522245,-0.669732 -0.850445,-0.944941 -3.055083,-0.07908 -5.153052,1.760735 -7.9375,2.456847 -0.840363,0.21009 -1.70977,0.493144 -2.551339,0.661458 -0.508066,0.101613 -0.06164,-0.162572 -0.661458,0.09449 -0.750295,0.321555 -1.552863,0.688549 -2.362352,0.850447 -0.790636,0.158127 -4.199552,0.89226 -4.630208,1.322916"
       id="path881"
       inkscape:connector-curvature="0" />
    <path
       style="fill:none;stroke:#000000;stroke-width:0.26458332px;stroke-linecap:butt;stroke-linejoin:miter;stroke-opacity:1"
       d="m 99.785714,67.851935 c 1.283436,-0.520039 2.727806,-0.566965 4.157736,-0.566965 1.42001,0 2.73322,0.423447 4.06325,0.755951 0.5565,0.139129 1.04815,0.616392 1.60639,0.755952 1.00175,0.250439 1.84598,0.592259 2.74033,1.039437 0.26428,0.132138 1.05893,0.01947 1.22842,0.188986 0.30602,0.30602 2.21036,0.536565 2.83483,0.661458 0.16875,0.03375 1.03943,0.214376 1.03943,0.283483 0,0.157491 -0.31498,0 -0.47247,0"
       id="path883"
       inkscape:connector-curvature="0" />
    <path
       style="fill:none;stroke:#000000;stroke-width:0.26458332px;stroke-linecap:butt;stroke-linejoin:miter;stroke-opacity:1"
       d="m 75.311756,73.805054 c 0.683625,-0.298034 -0.944941,0.765691 -0.944941,0.472475 0,-0.23758 1.116229,0.555164 1.133927,0.566965 0.582192,0.388125 0.994995,0.711512 1.417413,1.133927 0.328808,0.328808 0.386654,1.048113 0.755952,1.41741 0.295396,0.295397 0.597704,0.513458 0.850444,0.850448 0.525897,0.701193 0.660572,1.511016 1.228424,2.078868 0.01741,0.01741 0.07708,0.26607 0.09449,0.283482 0.152596,0.152596 0.450922,0.450922 0.566965,0.566965 0.07874,0.07875 0.393727,-0.07874 0.472472,0 0.324768,0.324771 0.70163,0.970968 0.850445,1.41741 0.319892,0.959676 0.222435,2.051267 0.661458,2.929316 0.167566,0.335132 0.0091,0.868638 0.188989,1.228424 0.166786,0.33357 0.300808,1.52923 0.472469,1.700892 0.174864,0.17486 -0.113093,0.90774 0,1.133927 0.08933,0.178666 0.24942,0.763646 0.18899,0.944941 -0.205433,0.616299 -0.135954,1.110774 -0.283483,1.700893 -0.157858,0.63143 -0.367128,1.29037 -0.566965,1.889881 -0.06578,0.197332 -0.242618,0.321776 -0.283482,0.566965 -0.114028,0.684168 -0.209926,1.406668 -0.377976,2.078869 -0.145098,0.58039 -0.479767,1.18501 -0.566965,1.795385 -0.238631,1.670413 -0.263687,3.410753 -0.09449,5.102683 0.05773,0.5773 -0.02426,1.13906 -0.09449,1.70089 -0.108135,0.86509 0.23526,1.46173 0.472469,2.17336 0.03984,0.11953 -0.05635,0.26529 0,0.37798 0.0315,0.063 0.157491,0.0315 0.188989,0.0945 0.07056,0.14112 0.02286,0.42369 0.09449,0.56697 0.307321,0.61464 0.45443,1.49386 0.850447,1.88988 0.04455,0.0445 -0.04454,0.14444 0,0.18899 0.09881,0.0988 0.792285,-0.32709 0.944941,-0.37798 1.6549,-0.55163 3.683619,-1.32127 4.819195,-2.45685 0.07877,-0.0788 0.678209,0.0111 0.755952,0 0.423034,-0.0604 0.909341,-0.18804 1.322916,-0.28348 1.353712,-0.31239 2.628374,-0.86286 3.96875,-1.22842 0.998419,-0.2723 2.099509,-0.43962 3.118305,-0.56696 0.771938,-0.0965 1.361755,-0.0444 2.078869,-0.28349 0.611635,-0.20387 1.134405,0.23648 1.606395,0.47247 0.55771,0.27886 1.10233,0.084 1.7009,0.28349 0.82876,0.27625 1.64619,0.77186 2.55134,1.13392 0.68882,0.27553 1.46262,0.48378 2.17336,0.66146 0.57979,0.14495 1.20252,0.0408 1.79539,0.18899 0.19343,0.0484 1.33879,0.39385 1.41741,0.47247 0.0315,0.0315 0.063,0.12599 0.0945,0.0945 0.28382,-0.28381 -0.48229,-2.02364 -0.56696,-2.36235 -0.1319,-0.52756 -0.18899,-1.14795 -0.18899,-1.70089 0,-0.86351 0.12067,-1.96843 0.37797,-2.74033 0.1593,-0.47788 -0.0283,-1.11503 0.0945,-1.60639 0.39293,-1.571738 0.33641,-3.299864 0.56696,-4.913695 0.17619,-1.233281 0.95768,-2.357009 1.13393,-3.590774 0.13582,-0.950741 0.28531,-1.898997 0.47247,-2.83482 0.14054,-0.702678 0.07,-1.459587 0.18899,-2.173364 0.13786,-0.827191 0.40479,-1.645963 0.56696,-2.456844 0.44113,-2.205654 1.63236,-4.072573 2.17337,-6.236608 0.17342,-0.693708 0.80909,-1.293352 1.03943,-1.984375 0.39813,-1.194382 0.84811,-2.452169 1.41741,-3.590774 0.11513,-0.230251 0.30361,-1.30279 0.0945,-1.511906 -0.0791,-0.07905 -0.28865,-0.194151 -0.37798,-0.283482 -0.0276,-0.02765 -0.47247,-0.170601 -0.47247,-0.188987 0,-0.201686 -0.30466,0.2661 -0.47247,0.377976"
       id="path885"
       inkscape:connector-curvature="0" />
    <path
       style="fill:none;stroke:#000000;stroke-width:0.26458332px;stroke-linecap:butt;stroke-linejoin:miter;stroke-opacity:1"
       d="m 82.965773,110.84673 c -0.01426,0.45892 0.163515,3.94327 0.188987,3.96875 0.23278,0.23277 1.938766,-0.33106 2.173364,-0.37798 2.144985,-0.429 4.170902,-1.34086 6.331101,-1.7009 1.362688,-0.22711 2.784012,-0.2406 4.157739,-0.37797 0.947788,-0.0948 1.96411,-0.32688 2.929316,-0.18899 0.573555,0.0819 1.227883,-0.019 1.79539,0.0945 0.78268,0.15653 1.54376,0.35552 2.36235,0.47246 0.74795,0.10686 1.62936,-0.18324 2.36235,0 0.85456,0.21365 1.70893,0.26187 2.55134,0.47248 0.158,0.0395 0.4234,-0.0718 0.56696,0 0.5486,0.2743 1.74315,0.37797 2.26786,0.37797 0.22048,0 0.44097,0 0.66146,0 0.063,0 0.18898,0.063 0.18898,0 0,-0.12979 -0.24324,-0.406 -0.28348,-0.56696 -0.18096,-0.72386 0.0185,-1.47498 -0.28348,-2.07887 -0.10079,-0.20159 0.1008,-0.55437 0,-0.75595 -0.18862,-0.37724 -0.28348,-0.67281 -0.28348,-1.13393 0,-0.13638 0.0911,-0.85384 0,-0.94494 -0.0203,-0.0203 -0.18502,0.26141 -0.56697,0.56696"
       id="path887"
       inkscape:connector-curvature="0" />
    <path
       style="fill:none;stroke:#000000;stroke-width:0.26458332px;stroke-linecap:butt;stroke-linejoin:miter;stroke-opacity:1"
       d="m 92.793155,107.16146 c -0.294865,0.59887 -0.289521,5.19113 0,5.48065 0.03385,0.0339 1.182015,-0.34275 1.322916,-0.37797 0.893546,-0.22339 5.866622,-0.66946 6.236609,-1.03944 0.0603,-0.0603 0,-0.49125 0,-0.56696 0,-0.67174 -0.0589,-1.33378 -0.18899,-1.98438 -0.11052,-0.55258 0.17766,-1.26241 0,-1.79538 -0.0875,-0.26236 -1.467398,0.41289 -1.6064,0.47246 -0.707683,0.3033 -1.441352,0.67044 -2.173364,0.94495 -0.45281,0.1698 -1.4958,0.13368 -1.795386,0.28348 -0.538964,0.26948 -1.632368,0.59293 -1.700892,0.66146"
       id="path889"
       inkscape:connector-curvature="0" />
    <path
       style="fill:none;stroke:#000000;stroke-width:0.26458332px;stroke-linecap:butt;stroke-linejoin:miter;stroke-opacity:1"
       d="m 92.887648,109.24033 c 0.09449,0.50397 0.13054,1.02249 0.283483,1.5119 0.09583,0.30666 2.229993,-0.56696 2.456844,-0.56696 0.02702,0 0.850447,-0.29292 0.850447,-0.18899 0,0.18899 -0.377976,0 -0.566965,0"
       id="path891"
       inkscape:connector-curvature="0" />
    <path
       style="fill:none;stroke:#000000;stroke-width:0.26458332px;stroke-linecap:butt;stroke-linejoin:miter;stroke-opacity:1"
       d="m 83.438242,114.90997 c -0.366117,0.0483 0.208063,-0.3589 0.0945,-0.47247 -0.116543,-0.11654 -0.179541,0.085 -0.188989,0.0945 -0.02228,0.0223 -0.102135,-0.0306 -0.09449,0 0.03416,0.13666 0.201739,0.23769 0.188986,0.37798 -0.02172,0.23889 -0.207624,0.43388 -0.283482,0.66146 -0.14445,0.43335 0,1.14333 0,1.6064 0,0.71322 -0.260869,1.37622 -0.377976,2.07886 -0.03625,0.21749 0.03118,0.44319 0,0.66146 -0.08564,0.59948 -0.283483,1.18094 -0.283483,1.79539 0,1.09363 -0.431958,2.13277 -0.566962,3.2128 -0.07112,0.56896 -0.117869,1.13193 -0.188989,1.70089 -0.04495,0.35956 -0.238535,0.67987 -0.283483,1.03943 -0.07825,0.62601 -0.06658,1.27786 -0.188986,1.88989 -0.167939,0.83968 -0.377976,1.76485 -0.377976,2.64583 0,0.50568 0.01992,-0.21402 -0.0945,0.47247 -0.04597,0.27582 0.04597,0.57463 0,0.85045 -0.08325,0.49953 -0.117451,1.01116 -0.188987,1.5119 -0.07712,0.53981 0,1.1545 0,1.70089 0,1.53991 0.07454,3.10891 -0.0945,4.63021 -0.09077,0.81697 -0.356502,1.64509 -0.472469,2.45685 -0.104177,0.72923 -0.485021,1.43586 -0.566965,2.17336 -0.04546,0.40917 -0.04348,0.82032 -0.09449,1.22842 -0.14505,1.1604 0.0881,2.49519 -0.09449,3.59078 -0.02828,0.16966 -0.246552,1.49127 -0.18899,1.60639 0.325007,0.65002 0.339154,2.00636 0.09449,2.74033 -0.06967,0.20902 0.09857,0.55881 0,0.75596 -0.09492,0.18983 -0.274005,0.46299 -0.377976,0.56696 -0.01265,0.0127 0.156292,0.85404 0.0945,1.03943 -0.120367,0.3611 -0.441743,0.66378 -0.566965,1.03944 -0.129098,0.3873 -0.283483,1.86256 -0.283483,2.26786 0,0.37249 -0.245983,2.49434 0,2.74032 0.220763,0.22077 2.767764,-0.72297 3.118303,-0.85045 0.505902,-0.18396 1.001228,-0.22477 1.511906,-0.37797 0.162467,-0.0487 0.306141,-0.15572 0.472469,-0.18899 0.154432,-0.0309 0.318733,0.0342 0.472471,0 0.13751,-0.0306 0.244341,-0.14444 0.377976,-0.18899 0.801024,-0.267 1.724369,-0.38058 2.55134,-0.47247 0.490416,-0.0545 1.140458,-0.22266 1.606399,-0.37797 0.344239,-0.11475 0.331193,-0.22844 0.661459,-0.28348 0.627599,-0.1046 1.276165,-0.16074 1.889879,-0.28349 0.154432,-0.0309 0.319683,0.0382 0.472472,0 0.441711,-0.11043 1.897287,-0.51601 2.36235,-0.28348 0.14129,0.0707 0.293177,0.25775 0.46295,0.29179 0.04367,0.009 0,-0.0891 0,-0.13363 0,-0.17771 0.06682,-0.28103 0.06682,-0.46772 0,-0.31854 0.205811,-0.62816 0.267268,-0.93545 0.06056,-0.3028 0.01601,-0.63059 0.06682,-0.93544 0.175271,-1.05163 0.06682,-2.00203 0.06682,-3.0736 0,-0.96509 0.258562,-2.24851 0.06682,-3.20723 -0.18234,-0.9117 -0.133633,-2.19894 -0.133633,-3.14042 0,-1.12756 -0.228232,-2.34461 -0.06682,-3.4745 0.09019,-0.63131 0.09826,-1.32454 0.200451,-1.93771 0.161814,-0.97088 0.367941,-2.13549 0.200454,-3.14041 -0.116051,-0.69631 -0.139295,-1.45639 -0.334087,-2.13816 -0.240715,-0.8425 -0.590708,-1.67336 -0.734991,-2.53906 -0.05438,-0.3263 -0.0021,-0.67839 -0.06682,-1.00226 -0.125777,-0.62888 -0.378611,-1.4033 -0.267269,-2.07134 0.0747,-0.44822 0.48237,-2.10064 0.668174,-2.47224 0.152069,-0.30414 0.316563,-0.6649 0.400904,-1.00227 0.143145,-0.57258 -0.520271,-1.56533 -0.267271,-2.07133 0.236103,-0.47221 0.604575,-1.11175 1.135896,-1.5368 0.289703,-0.23176 0.647951,-0.37137 0.935445,-0.60136 0.328768,-0.26301 0.527354,-0.52975 0.935442,-0.80181 0.149942,-0.1 0.232585,-0.26556 0.334087,-0.4009 0.898363,-1.19782 0.467722,-1.32632 0.467722,-2.80633 0,-0.21694 0.137091,-1.06217 0.06682,-1.20271 -0.05808,-0.11616 -0.330322,-0.33409 -0.200454,-0.33409 0.114118,0 0.178806,0.6484 0.200454,0.73499 0.09711,0.38843 0.387813,0.73635 0.46772,1.13589 0.23532,1.1766 0.732012,2.36159 1.069078,3.54132 0.182726,0.63954 0.107995,1.2905 0.200454,1.93771 0.08412,0.58887 0.303895,1.1552 0.400905,1.73725 0.44157,2.64944 0.13363,5.38464 0.13363,8.08491 0,2.66744 0.29522,5.42794 0,8.0849 -0.18872,1.69848 -0.361413,3.39853 -0.601353,5.07812 -0.124225,0.86957 -0.878671,2.09797 -0.668174,2.93996 0.08472,0.33889 0.264171,0.65268 0.334087,1.00226 0.09414,0.47072 0.15158,0.94041 0.267269,1.40317 0.145576,0.5823 -0.05245,1.24582 0.133636,1.80407 0.0735,0.2205 -0.0735,0.51449 0,0.73499 0.383205,1.14962 -0.728054,3.05754 -0.400905,3.87541 0.08933,0.22332 0.326427,0.41296 0.467722,0.60135 0.07714,0.10286 0.07695,0.41104 0.133634,0.46773 0.0498,0.0498 0.132124,-0.0497 0.200454,-0.0668 0.66481,-0.16621 1.32812,-0.36544 2.00452,-0.53454 0.7406,-0.18515 1.46285,-0.14358 2.20497,-0.26727 0.45508,-0.0759 0.94808,0.0759 1.40316,0 1.28347,-0.21391 2.76747,-0.34583 4.07587,-0.20045 0.41754,0.0464 0.88073,0.20045 1.26952,0.20045 0.0633,0 0.21178,-0.0277 0.26727,0 0.0446,0.0223 0.11137,0.11136 0.13364,0.0668 0.0672,-0.13446 -0.10052,-0.23474 -0.13364,-0.33409 -0.0903,-0.27102 0,-0.71889 0,-1.00226 0,-1.23419 -0.29817,-2.35951 -0.53453,-3.54132 -0.051,-0.25504 -0.0237,-0.54332 -0.0668,-0.80181 -0.23882,-1.43293 0.38418,-2.50554 0.60135,-3.80859 0.0457,-0.2745 0.22153,-0.52732 0.26727,-0.80181 0.14181,-0.8508 0.32904,-1.71704 0.53454,-2.53906 0.16866,-0.67464 -0.0668,-1.52144 -0.0668,-2.20497 0,-1.95519 -0.2451,-3.98622 0.13364,-5.87993 0.136,-0.68002 -0.10065,-1.4683 0.0668,-2.13816 0.12558,-0.50234 -0.002,-1.39675 0.13363,-1.80407 0.24039,-0.72116 -0.14795,-1.89475 0.0668,-2.53906 0.21711,-0.65132 0.0668,-1.57905 0.0668,-2.27179 0,-0.92357 0.1543,-2.05549 -0.0668,-2.93997 -0.10291,-0.41163 0.13374,-0.93511 0,-1.33634 -0.30054,-0.90163 -0.22992,-1.9593 -0.53454,-2.87315 -0.44101,-1.32303 -1.06908,-2.87391 -1.06908,-4.40995 0,-0.50254 -0.14435,-1.63827 0,-2.07134 0.16361,-0.49083 0.74127,-3.26777 0.40091,-3.60813 -0.063,-0.063 -0.13097,-0.74033 -0.0668,-0.86863 0.0315,-0.063 0.017,-0.15065 0.0668,-0.20045 0.0157,-0.0157 0.0891,0 0.0668,0 -0.45006,0 -0.44154,0.0581 -1.06907,0.26727"
       id="path893"
       inkscape:connector-curvature="0" />
    <path
       style="fill:none;stroke:#000000;stroke-width:0.26458332px;stroke-linecap:butt;stroke-linejoin:miter;stroke-opacity:1"
       d="m 82.304315,162.91294 c -0.378047,2.30302 0.472469,4.5784 0.472469,6.80358"
       id="path895"
       inkscape:connector-curvature="0" />
    <path
       style="fill:none;stroke:#000000;stroke-width:0.26458332px;stroke-linecap:butt;stroke-linejoin:miter;stroke-opacity:1"
       d="m 82.776784,169.71652 c -2.561558,-1.85012 -4.446979,-2.05339 -7.087052,0 -1.461786,1.13694 -3.834858,2.81112 -4.441222,4.6302 -0.779523,2.33857 2.142971,6.67252 4.630208,7.08706 2.597513,0.43292 5.265772,-0.60774 7.748513,-1.22843 0.655368,-0.16384 1.322684,-0.20996 1.984375,-0.28348 0.873581,-0.0971 1.695919,-0.51889 2.55134,-0.66146 1.115669,-0.18594 2.30114,-0.0945 3.307292,-0.0945"
       id="path897"
       inkscape:connector-curvature="0" />
    <path
       style="fill:none;stroke:#000000;stroke-width:0.26458332px;stroke-linecap:butt;stroke-linejoin:miter;stroke-opacity:1"
       d="m 91.470238,179.16591 c 0.535498,0.24273 1.209821,-0.0565 1.700893,0.189 0.183234,0.0916 0.318288,0.40286 0.377975,0.28348 0.617956,-1.23591 -1.679363,-5.03809 -2.078868,-6.23661 -0.333899,-1.0017 -0.583681,-2.05123 -0.850447,-3.1183 -0.09762,-0.39049 -0.02829,-0.83122 -0.09449,-1.22842 -0.09205,-0.55229 -0.283482,-1.06616 -0.283482,-1.6064 0,-0.8596 -0.569889,-5.28874 -0.09449,-5.76414 0.186714,-0.18671 -0.132805,-0.81214 0.09449,-1.03943 0.174728,-0.17473 0.782153,0.46452 0.850445,0.56696"
       id="path899"
       inkscape:connector-curvature="0" />
    <path
       style="fill:none;stroke:#000000;stroke-width:0.26458332px;stroke-linecap:butt;stroke-linejoin:miter;stroke-opacity:1"
       d="m 102.62053,161.87351 c -0.063,0.12599 -0.16136,0.23985 -0.18898,0.37798 -0.0363,0.18156 0.40977,0.85133 0.47247,1.03943 0.32468,0.97404 0.37797,3.15623 0.37797,4.25223 0,1.34436 -0.40467,2.59034 -0.66146,3.87426 -0.1856,0.92802 -0.28364,1.89069 -0.47247,2.83482 -0.0765,0.38233 -0.26987,0.71514 -0.37797,1.03943 -0.17635,0.52906 -0.11249,1.09341 -0.28348,1.6064 -0.11906,0.35718 -0.37798,0.73538 -0.37798,1.13393 0,0.44151 -0.14478,1.09579 -0.28348,1.51191 -0.0205,0.0615 0.0529,0.41956 0,0.47247 -0.0315,0.0315 -0.12599,0.063 -0.0945,0.0945 0.0315,0.0315 0.063,-0.063 0.0945,-0.0945 0.15101,-0.15102 0.92185,-0.0238 1.13393,-0.0945 0.6391,-0.21303 1.31775,-0.58929 1.98437,-0.75595 0.49887,-0.12472 1.06792,-0.43947 1.51191,-0.66146 0.33974,-0.16987 0.95112,-0.002 1.32291,-0.0945 0.70688,-0.17672 1.54661,-0.42272 2.26786,-0.56697 0.32068,-0.0641 0.65226,0.0213 0.94494,0.0945 0.40491,0.10123 0.92753,-0.1318 1.32292,0 0.9497,0.31657 2.25616,0.20969 3.30729,0.47247 0.67738,0.16934 1.26894,-0.1593 1.88988,-0.28348 1.9476,-0.38952 2.65798,-1.35936 3.30729,-3.3073 0.16867,-0.50602 -0.18899,-1.03623 -0.18899,-1.5119 0,-0.65404 -0.74039,-1.17618 -1.13393,-1.70089 -0.1455,-0.19401 -0.20536,-0.48885 -0.37797,-0.66146 -0.0518,-0.0518 -1.38906,-1.02999 -1.41741,-1.03944 -0.26829,-0.0894 -0.93169,-0.0879 -1.13393,-0.18898 -1.5202,-0.7601 -4.06961,-0.2803 -5.38616,0.37797 -0.27212,0.13606 -1.73698,0.81436 -1.79539,0.75595 -0.12338,-0.12338 0.75595,-1.48864 0.75595,-1.70089 0,-0.31983 0.17029,-0.88884 0.28349,-1.22842 0.13275,-0.39825 0.12281,-2.8065 0,-2.92932 -0.0704,-0.0704 0.28348,-2.12353 0.28348,-2.45684 0,-0.19576 0.12458,-1.10385 0,-1.22842 -0.0891,-0.0891 -0.25199,0 -0.37798,0"
       id="path901"
       inkscape:connector-curvature="0" />
    <path
       style="fill:none;stroke:#000000;stroke-width:0.26458332px;stroke-linecap:butt;stroke-linejoin:miter;stroke-opacity:1"
       d="m 118.4004,71.691787 c 0.0733,0.391605 0.41519,0.548828 0.66817,0.80181 0.0792,0.07915 0.24395,0.132844 0.33409,0.200451 0.72208,0.541557 1.34386,1.41818 1.73725,2.204974 0.42757,0.855133 0.47014,1.875726 0.93545,2.806329 0.5264,1.052801 0.96443,2.177222 1.40316,3.274052 0.38647,0.966182 0.90332,1.920476 1.33635,2.873148 0.36959,0.813093 0.54233,1.686009 0.93544,2.472242 0.0919,0.183769 0.0949,0.425453 0.20045,0.601356 0.41939,0.698979 1.01546,1.589588 1.20272,2.33861 0.0276,0.110387 0.43076,0.63832 0.33408,0.734991 -0.0978,0.09784 -0.12784,-0.103121 -0.20045,-0.06682 -0.22354,0.111771 -0.43002,0.254704 -0.66817,0.334087 -0.42888,0.14296 -2.62067,1.885677 -3.00679,2.271792 -0.43551,0.435515 -0.8262,0.826206 -1.26952,1.269529 -0.19054,0.190532 -0.42082,0.420812 -0.53454,0.53454 -0.007,0.0067 0.0312,0.231632 -0.0668,0.133633 -0.0549,-0.05488 -0.0448,-0.57999 -0.0668,-0.668173 -0.23735,-0.949415 -0.56995,-2.226694 -0.93544,-3.140416 -0.27565,-0.689129 -0.6963,-1.249585 -1.06908,-1.870888 -0.13475,-0.224589 0.002,-0.153797 -0.13363,-0.334086 -0.2875,-0.383329 -0.68752,-0.722689 -0.93545,-1.135896 -0.11393,-0.189884 -0.25243,-0.653339 -0.4009,-0.80181 -0.22325,-0.223247 -0.53003,-0.656886 -0.66818,-1.00226 -0.24872,-0.62181 -0.58853,-1.225878 -0.93544,-1.804069 -0.43383,-0.723048 -0.48498,-1.588585 -0.73499,-2.338607 -0.046,-0.137954 -0.14415,-0.15467 -0.20045,-0.267269 -0.14371,-0.287412 -0.0591,-0.586004 -0.20046,-0.868627 -0.0372,-0.07447 -0.20045,-0.320162 -0.20045,-0.334087 0,-0.240728 0.2845,0.357772 0.40091,0.668174"
       id="path913"
       inkscape:connector-curvature="0" />
    <path
       style="fill:none;stroke:#000000;stroke-width:0.26458332px;stroke-linecap:butt;stroke-linejoin:miter;stroke-opacity:1"
       d="m 122.07536,94.276062 c -0.0446,-0.08909 -0.11411,-0.169598 -0.13364,-0.267269 -0.0221,-0.110609 0.32146,-0.455091 0.40091,-0.53454 0.23813,-0.238136 0.42744,-0.561075 0.66817,-0.801809 0.4118,-0.411806 0.95331,-0.761016 1.40316,-1.135896 0.30376,-0.253124 0.52559,-0.592407 0.80181,-0.868624 0.65697,-0.656969 1.55106,-1.197904 2.33861,-1.670434 0.27416,-0.164494 0.67599,-0.275087 0.86863,-0.467723 0.0458,-0.04585 0.13926,0.16986 0.20045,0.200451 0.37251,0.186259 0.69607,0.09471 1.00226,0.400905 0.66734,0.667337 0.89694,1.624007 0.66817,2.539061 -0.0727,0.290687 -0.48682,0.708755 -0.66817,0.935445 -0.54438,0.680476 -1.76706,1.742897 -2.47224,2.271789 -0.42355,0.317661 -0.91978,0.535366 -1.33635,0.868627 -0.62246,0.497967 -0.98377,0.692335 -1.60362,1.00226 -0.27507,0.137533 -0.52732,0.509863 -0.80181,0.601356 -0.21472,0.07157 -0.31282,-0.123002 -0.46772,-0.200451 -0.77276,-0.386382 -0.83434,-1.300306 -1.06908,-2.004523 -0.0358,-0.107522 -0.18679,-0.227777 -0.13363,-0.334087 0.28965,-0.579297 0.86756,-1.001191 1.33635,-1.469983"
       id="path915"
       inkscape:connector-curvature="0" />
    <path
       style="fill:none;stroke:#000000;stroke-width:0.26458332px;stroke-linecap:butt;stroke-linejoin:miter;stroke-opacity:1"
       d="m 124.5476,96.881941 c 0.40415,0.42354 0.25913,0.96969 0.4009,1.536798 0.0564,0.225636 0.15409,0.436335 0.20045,0.668173 0.0657,0.328552 -0.0112,0.712552 0.13364,1.002258 0.11449,0.22898 0.0156,0.56582 0.13363,0.80181 0.12473,0.24945 -0.12472,0.68599 0,0.93545 0.0862,0.17229 0.26797,0.33617 0.33409,0.53453 0.17571,0.52713 0.15858,1.06018 0.26727,1.60362 0.12269,0.61343 0.33409,1.26799 0.33409,1.87089 0,0.14415 0.0486,0.56482 0.13363,0.73499 0.0977,0.19536 0.0561,1.15968 0.13364,1.46998 0.0242,0.0968 0.17125,0.831 0.20045,0.80181 0.009,-0.009 -0.12522,-0.53454 -0.0668,-0.53454 0.029,0 -0.0856,0.16291 -0.0668,0.20045 0.16719,0.3344 0.10791,0.76574 0.20045,1.1359 0.11514,0.46055 0.20058,1.00253 0.4009,1.40316 0.0713,0.14255 -0.0713,0.392 0,0.53454 0.0878,0.1756 0.13364,0.27411 0.13364,0.46772"
       id="path917"
       inkscape:connector-curvature="0" />
    <path
       style="fill:none;stroke:#000000;stroke-width:0.26458332px;stroke-linecap:butt;stroke-linejoin:miter;stroke-opacity:1"
       d="m 128.15574,94.409695 c 0.0891,0.02228 0.182,0.03271 0.26727,0.06682 0.23964,0.09586 1.46921,2.134307 1.5368,2.472243 0.0597,0.298241 0.20836,0.574104 0.26727,0.868627 0.0362,0.181224 0.009,0.426733 0.0668,0.601356 0.12238,0.36712 0.52433,2.328389 0.60136,2.405429 0.026,0.026 0,0.22649 0,0.26727 0,0.57286 0.15008,1.25205 0.33409,1.80406 0.13952,0.41857 -0.0202,0.96786 0.0668,1.40317 0.0618,0.30887 0.1384,0.62517 0.20046,0.93544 0.0871,0.43531 -0.02,0.90211 0.0668,1.33635 0.0627,0.31354 0.18592,0.82224 0.13364,1.13589 -0.0349,0.20926 -0.17433,2.82091 -0.20045,2.87315 -0.072,0.14391 -0.20046,1.21624 -0.20046,1.40317"
       id="path919"
       inkscape:connector-curvature="0" />
    <path
       style="fill:none;stroke:#000000;stroke-width:0.26458332px;stroke-linecap:butt;stroke-linejoin:miter;stroke-opacity:1"
       d="m 127.42078,112.04948 c -0.4407,0.36502 -0.9339,0.6666 -1.33638,1.06908 -0.57468,0.57468 -1.18675,0.91948 -1.67044,1.40317 -0.22484,0.22484 1.25052,2.52005 1.46999,2.73951 0.25523,0.25523 0.48882,1.76011 0.80181,1.60362 0.19547,-0.0977 0.49128,-1.58005 0.4009,-1.67044 -0.20027,-0.20026 -0.26727,-0.76922 -0.26727,-1.13589"
       id="path921"
       inkscape:connector-curvature="0" />
    <path
       style="fill:none;stroke:#000000;stroke-width:0.26458332px;stroke-linecap:butt;stroke-linejoin:miter;stroke-opacity:1"
       d="m 126.81939,116.05853 c 0.24731,-0.16611 1.25772,-1.1359 1.46998,-1.1359 0.047,0 0.33409,1.19562 0.33409,1.33635 0,0.96475 -0.0465,1.9437 -0.33409,2.80633 -0.0735,0.22064 -0.01,0.50736 -0.0668,0.73499 -0.1191,0.47642 -0.5116,1.44905 -0.26727,1.9377 0.21726,0.43451 0.74083,-0.27698 0.93545,-0.60135 0.69422,-1.15704 0.60135,-2.37893 0.60135,-3.67496"
       id="path923"
       inkscape:connector-curvature="0" />
    <path
       style="fill:none;stroke:#000000;stroke-width:0.26458332px;stroke-linecap:butt;stroke-linejoin:miter;stroke-opacity:1"
       d="m 129.4921,117.46169 c 0.0724,0.74241 0.0668,1.49751 0.0668,2.27179 0,1.08641 -0.4009,2.03276 -0.4009,3.14042 0,0.2667 0.31047,0.78021 0.66817,0.60136 0.66633,-0.33316 0.83349,-2.46879 1.1359,-3.0736 0.10173,-0.20347 0,-0.76723 0,-1.00226 0,-0.40347 -0.0668,-0.75332 -0.0668,-1.1359 0,-0.11357 -0.18039,-0.33408 -0.0668,-0.33408 0.0668,0 0,0.13363 0,0.20045 0,0.16846 0.0668,0.24341 0.0668,0.4009 0,0.37071 0.0258,3.22774 0.60136,2.93997 0.32959,-0.1648 0.23025,-0.4235 0.33408,-0.735 0.096,-0.28797 0.23666,-0.57635 0.33409,-0.86862 0.20137,-0.60411 0,-1.3472 0,-1.9377 0,-0.0237 0.0254,-0.29263 -0.0668,-0.20046 -0.006,0.006 0.70239,1.97192 0.80181,2.07134 0.0849,0.0849 0.323,0.61245 0.53454,0.40091 0.29217,-0.29217 0.20194,-0.73946 0.33409,-1.1359 0.32309,-0.96929 -0.28209,-1.83371 -0.66818,-2.60588 -0.1473,-0.29461 -0.46031,-0.51971 -0.60135,-0.80181 -0.0448,-0.0895 -0.15941,-0.0926 -0.20046,-0.13363 -0.10099,-0.101 -0.33674,-0.47303 -0.4009,-0.60136 -0.11539,-0.23078 -0.44802,-0.30453 -0.60136,-0.53454 -0.82355,-1.23532 -0.22916,-0.6966 0.26727,-1.9377 0,-0.25025 -0.0299,-0.14069 0.0668,-0.33409 0.0909,-0.18187 0.13364,-0.3969 0.13364,-0.60135 0,-0.0668 -0.0668,-0.20046 0,-0.20046 0.0445,0 0,0.0891 0,0.13364 0,0.10088 0.017,0.26229 -0.0668,0.33409 -0.11345,0.0972 -0.26729,0.13363 -0.40094,0.20045"
       id="path925"
       inkscape:connector-curvature="0" />
    <path
       style="fill:none;stroke:#000000;stroke-width:0.26458332px;stroke-linecap:butt;stroke-linejoin:miter;stroke-opacity:1"
       d="m 78.978145,80.110776 c -0.216696,0.121105 0.08371,-0.400904 0,-0.400904 -0.133636,0 0.05976,0.281379 0,0.400904 -0.07779,0.155591 -0.277902,0.211085 -0.400904,0.334087 -0.145357,0.145357 -0.139952,0.431599 -0.267269,0.601358 -0.438193,0.584256 -0.906143,1.312524 -1.202714,2.00452 -0.340156,0.793698 -0.303985,1.586741 -0.467723,2.405425 -0.02458,0.122852 0.03947,0.282501 0,0.400905 -0.190002,0.570013 -0.249192,1.197221 -0.400904,1.804069 -0.02561,0.102463 0.03334,0.23409 0,0.334087 -0.191418,0.57426 -0.321223,1.15126 -0.46772,1.737254 -0.04193,0.167698 0.04192,0.36684 0,0.534538 -0.116401,0.465598 -0.114509,0.944877 -0.267271,1.403165 -0.169122,0.507367 0.04576,1.332703 -0.133634,1.870887 -0.172429,0.517287 -0.469648,1.636062 0.133634,1.937705"
       id="path927"
       inkscape:connector-curvature="0" />
    <path
       style="fill:none;stroke:#000000;stroke-width:0.26458332px;stroke-linecap:butt;stroke-linejoin:miter;stroke-opacity:1"
       d="m 75.311756,73.805054 c -0.318133,3.836427 -0.918234,0.374243 -1.144463,0.826699 -0.56763,1.135258 -0.602988,2.442911 -1.069078,3.608139 -0.171493,0.428733 -0.225759,0.903038 -0.334087,1.336346 -0.06834,0.273379 -0.279022,0.526484 -0.334087,0.80181 -0.09129,0.456475 -0.198546,0.929724 -0.334087,1.336347 -0.06757,0.202723 -2.17e-4,0.46837 -0.06682,0.668173 -0.09925,0.297751 -0.412547,0.714745 -0.467723,0.935442 -0.194903,0.779616 -0.296235,1.423252 -0.534538,2.138156 -0.142113,0.426345 -0.08293,1.251059 -0.200453,1.603619 -0.09843,0.295285 -0.21989,0.487161 -0.400902,0.668173 -0.05751,0.0575 -0.400905,1.726827 -0.400905,1.870887 0,0.886537 0.166114,2.109391 0,2.939966 -0.112932,0.56466 -0.568907,1.133975 -0.267271,1.737251 0.03714,0.07428 -0.06682,0.737958 -0.06682,0.868625 0,0.133635 0.133634,0.400904 0,0.400904 -0.02643,0 0.265512,-0.397827 0.267269,-0.400904 0.191209,-0.334614 0.404307,-0.590609 0.601356,-0.935443"
       id="path929"
       inkscape:connector-curvature="0" />
    <path
       style="fill:none;stroke:#000000;stroke-width:0.26458332px;stroke-linecap:butt;stroke-linejoin:miter;stroke-opacity:1"
       d="m 75.50364,95.478776 c 0.155908,0.06682 0.335269,0.09449 0.467722,0.200451 0.01281,0.01024 -0.452215,0.06682 -0.868624,0.06682 -0.268664,0 -1.584444,-0.195659 -1.870888,-0.267269 -0.439496,-0.109876 -1.438346,-0.133636 -1.937705,-0.133636 -0.567936,0 -1.103439,-0.133635 -1.670433,-0.133635 -0.328658,0 -0.812213,-0.08092 -1.135896,0 -0.18437,0.04609 -0.350682,0.154487 -0.534541,0.200453 -0.06482,0.01622 -0.153204,-0.04725 -0.200451,0 -0.220384,0.220385 0.675857,1.473825 0.935443,1.603616 0.505087,0.252542 1.028969,0.620062 1.603618,0.734991 0.239395,0.04788 0.493091,0.01844 0.734991,0.06682 1.578452,0.31569 3.499887,0.940795 5.011304,-0.06682 0.283842,-0.18923 0.562695,-0.418552 0.668173,-0.734991 0.03391,-0.101735 0.106842,-0.521311 0.06682,-0.601356 -0.114038,-0.228078 -1.017423,-0.88502 -1.269531,-0.935442 -0.42222,-0.08444 -0.849731,-0.02869 -1.269529,-0.133636 -0.656352,-0.164089 -1.562892,-0.444494 -2.271792,-0.267269 -0.352727,0.08818 -0.594805,0.777963 -0.734992,1.002261"
       id="path931"
       inkscape:connector-curvature="0" />
    <path
       style="fill:none;stroke:#000000;stroke-width:0.26458332px;stroke-linecap:butt;stroke-linejoin:miter;stroke-opacity:1"
       d="m 70.358703,97.750565 c -0.02344,0.145174 -0.284065,0.317656 -0.334087,0.467723 -0.184041,0.552124 -0.254794,1.169442 -0.467722,1.737251 -0.203258,0.542021 -0.464841,1.061401 -0.668174,1.603621 -0.474199,1.26453 -1.053811,2.56007 -1.469982,3.80859 -0.146984,0.44095 -0.404011,0.81113 -0.534541,1.20271 -0.170992,0.51298 -0.242863,1.08709 -0.46772,1.5368 -0.03564,0.0713 0.03563,0.196 0,0.26727 -0.178379,0.35676 -0.223176,0.78044 -0.400904,1.13589 -0.02553,0.0511 -0.248814,0.35255 -0.200454,0.40091 0.148577,0.14858 0.370467,-0.20283 0.534541,-0.33409"
       id="path933"
       inkscape:connector-curvature="0" />
    <path
       style="fill:none;stroke:#000000;stroke-width:0.26458332px;stroke-linecap:butt;stroke-linejoin:miter;stroke-opacity:1"
       d="m 73.766388,98.285106 c -0.08252,0.340272 -0.0857,0.666726 -0.133633,1.00226 -0.207677,1.453734 -0.639223,2.879854 -0.801809,4.343134 -0.211434,1.90291 -0.351547,3.79415 -0.935445,5.54584 -0.08384,0.25151 0.01736,0.54931 -0.06681,0.80181 -0.194927,0.58478 -0.330452,1.59998 -0.668174,1.9377 -0.102869,0.3654 -0.424462,0.55809 -0.601362,0.73499 -0.02477,0.0248 -0.04618,0.22599 -0.06682,0.26727 -0.10744,0.21488 -0.522869,0.44438 -0.668174,0.73499 -0.21561,0.43123 -0.424717,0.78262 -0.668174,1.26953 -0.03564,0.0713 0.03564,0.196 0,0.26727 -0.28687,0.57374 -0.464715,1.26352 -0.734991,1.80407 -0.04454,0.0891 0.04454,0.245 0,0.33409 -0.144548,0.2891 -0.140396,0.80857 -0.334087,1.00226 -0.03873,0.0387 -0.09491,0.22854 -0.133635,0.26727 -0.08853,0.0885 -1.300911,0.50316 -1.403165,0.4009 -0.290181,-0.29018 0.200453,-0.97258 0.200453,-1.26953 0,-0.26953 -0.0066,0.28052 -0.06682,0.40091 -0.133928,0.26786 -0.09326,0.74821 -0.467721,0.93544 -0.402861,0.20143 -0.980824,0.0214 -1.269531,-0.26727 -0.2019,-0.2019 0.298446,-0.96662 0.400905,-1.06908"
       id="path935"
       inkscape:connector-curvature="0" />
    <path
       style="fill:none;stroke:#000000;stroke-width:0.26458332px;stroke-linecap:butt;stroke-linejoin:miter;stroke-opacity:1"
       d="m 65.347394,117.72896 c -0.529725,0.62144 -0.785868,1.07705 -1.603613,0.66818 -0.465503,-0.23276 -0.243742,-0.69171 0,-0.93545 0.184092,-0.18409 0.400905,-0.36004 0.400905,-0.33408 0,0.045 -0.280186,0.5744 -0.334087,0.60135 -0.192297,0.0961 -0.345123,0.23938 -0.534538,0.33409 -0.429114,0.21456 -1.051012,-0.16432 -1.202714,-0.46772 -0.22561,-0.45122 0.548021,-1.04271 0.668174,-1.40317 0.105743,-0.31723 0.519985,-0.69132 0.601355,-0.93544 0.143164,-0.42949 0.390637,-0.85322 0.668174,-1.26953 0.09111,-0.13667 0.261398,-0.25552 0.334089,-0.4009 0.203692,-0.40739 0.454568,-0.96281 0.601356,-1.40317 0.02817,-0.0845 -0.02817,-0.18275 0,-0.26727 0.0843,-0.2529 0.253666,-0.49373 0.334087,-0.73499 0.02672,-0.0802 -0.02673,-0.18709 0,-0.26727 0.02085,-0.0625 0.09403,-0.66817 0.133635,-0.66817 0.06497,0 -0.05697,0.45682 -0.133635,0.8018"
       id="path937"
       inkscape:connector-curvature="0" />
    <path
       style="fill:none;stroke:#000000;stroke-width:0.26458332px;stroke-linecap:butt;stroke-linejoin:miter;stroke-opacity:1"
       d="m 63.676963,116.25898 c 0.290947,-0.0826 0.394274,-0.0734 0.601358,0.13363"
       id="path943"
       inkscape:connector-curvature="0" />
    <path
       style="fill:none;stroke:#000000;stroke-width:0.26458332px;stroke-linecap:butt;stroke-linejoin:miter;stroke-opacity:1"
       d="m 64.796156,116.71 c 0.09805,-0.009 0.601355,0.22201 0.601355,0.30068 0,0.0167 -0.03341,0 -0.05011,0"
       id="path965"
       inkscape:connector-curvature="0" />
    <path
       style="fill:none;stroke:#000000;stroke-width:0.26458332px;stroke-linecap:butt;stroke-linejoin:miter;stroke-opacity:1"
       d="m 65.865234,117.27794 c 0.102153,0.0189 0.601356,0.11064 0.601356,0.16705 0,6e-5 -0.05478,-0.0227 -0.100227,0"
       id="path967"
       inkscape:connector-curvature="0" />
    <path
       style="fill:none;stroke:#000000;stroke-width:0.26458332px;stroke-linecap:butt;stroke-linejoin:miter;stroke-opacity:1"
       d="m 67.285102,117.34476 c 0.138821,-0.033 0.277545,-0.0501 0.41761,-0.0501 0.01474,0 0.04772,0.0191 0.05011,0.0167 0.02267,-0.0227 0.08751,-0.0334 0.03341,-0.0334"
       id="path969"
       inkscape:connector-curvature="0" />
    <path
       style="fill:none;stroke:#000000;stroke-width:0.26458332px;stroke-linecap:butt;stroke-linejoin:miter;stroke-opacity:1"
       d="m 68.933406,116.25651 c -0.0315,-0.0158 -0.06519,-0.0277 -0.09449,-0.0473 -0.0293,-0.0195 0.06109,0.0361 0.09449,0.0473 0.108958,0.0363 0.224866,0.0416 0.330729,0.0945 0.278559,0.13928 0.597366,0.19238 0.874072,0.33073 0.204094,0.10205 0.432782,0.15733 0.637834,0.25986 0.474755,0.23738 0.881552,0.54334 1.41741,0.54334 0.272465,0 0.572092,0.0544 0.826823,0.11812 0.123126,0.0308 0.255627,0.14174 0.377978,0.14174 0.05546,0 0.09596,0.0244 0.14174,0.0473 0.01408,0.007 0.063,0 0.04725,0 -0.09449,0 -0.188987,0 -0.283483,0"
       id="path971"
       inkscape:connector-curvature="0" />
    <path
       style="fill:none;stroke:#000000;stroke-width:0.26458332px;stroke-linecap:butt;stroke-linejoin:miter;stroke-opacity:1"
       d="m 68.41369,117.91015 c 0.04725,0 0.0959,-0.0114 0.14174,0 0.02162,0.005 0.02815,0.0358 0.04725,0.0473 0.18067,0.1084 0.402346,0.16574 0.590589,0.25986 0.261686,0.13084 0.557438,0.19165 0.826823,0.30711 0.455602,0.19525 0.914924,0.36797 1.370163,0.51971 0.210162,0.0701 0.501026,0.0733 0.685083,0.16537 0.06441,0.0322 0.167029,5.3e-4 0.236234,0.0236 0.10796,0.036 0.242104,0.0945 0.354353,0.0945 0.05971,0 0.09285,-7.9e-4 0.14174,0.0236 0.01408,0.007 0.06219,0.005 0.04725,0 -0.0308,-0.0103 -0.063,-0.0157 -0.09449,-0.0236"
       id="path973"
       inkscape:connector-curvature="0" />
    <path
       style="fill:none;stroke:#000000;stroke-width:0.26458332px;stroke-linecap:butt;stroke-linejoin:miter;stroke-opacity:1"
       d="m 74.272322,116.98884 c -0.02035,0.0439 -0.09015,0.0525 -0.118118,0.0945 -0.07122,0.10683 -0.116152,0.2159 -0.165365,0.33073 -0.140806,0.32854 -0.387038,0.63649 -0.566965,0.94494 -0.156101,0.2676 -0.267245,0.56353 -0.425222,0.82682 -0.04698,0.0783 -0.141796,0.13396 -0.18899,0.21261 -0.11462,0.19104 -0.354351,0.55192 -0.354351,0.75596 0,0.0702 -0.03643,0.13093 -0.07087,0.16536 -0.01246,0.0125 0.02363,0.0296 0.02363,0.0473 0,0.0401 -0.07917,-0.0139 -0.118118,-0.0236 -0.258601,-0.0646 -0.538535,-0.13933 -0.779576,-0.25986 -0.501991,-0.25099 -1.108429,-0.29482 -1.630024,-0.42522 -0.0259,-0.006 -0.350104,-0.0751 -0.354351,-0.0709 -0.04262,0.0426 -0.0821,0.14058 -0.118118,0.21261 -0.205605,0.41121 -0.165364,0.57748 -0.165364,1.08668 0,0.22107 -0.01228,0.44601 0.02363,0.66146 0.01371,0.0823 0.05886,0.14135 0.0945,0.21261 0.461851,0.92371 1.657969,0.98576 2.527715,1.27567 0.09065,0.0302 0.170466,0.0824 0.259858,0.11812 0.128225,0.0513 0.27073,0.0618 0.4016,0.0945 0.122082,0.0305 0.250474,0.0898 0.354354,0.14175 0.09529,0.0476 0.247452,0.0352 0.354351,0.0709 0.190866,0.0636 0.389631,0.13875 0.590587,0.18898 0.27137,0.0678 0.568013,0.11865 0.803201,0.23624 0.01463,0.007 0.09587,0.0459 0.118118,0.0236 0.05531,-0.0553 0.09188,-0.29926 0.118118,-0.37798 0.03005,-0.0902 0.0988,-0.17398 0.14174,-0.25986 0.12069,-0.24138 0.231746,-0.49726 0.283483,-0.75595 0.0558,-0.27898 0.274367,-0.52139 0.330729,-0.8032 0.06132,-0.30662 0.175196,-0.61613 0.236236,-0.92131 0.04854,-0.24274 0.03991,-0.50828 0.07087,-0.75596 0.02931,-0.23447 0.143997,-0.46013 0.18899,-0.68508 0.01461,-0.073 0.08011,-0.14069 0.09449,-0.21261 0.03926,-0.19629 0.159655,-0.6381 0.283482,-0.8032 0.09612,-0.12815 0.218776,-0.21878 0.33073,-0.33073 0.04862,-0.0486 0.08452,-0.14543 0.118118,-0.21261 0.04246,-0.0849 0.165364,-0.13486 0.165364,-0.21261 0,-0.0105 -0.565502,-0.0611 -0.614212,-0.0709 -0.24548,-0.0491 -0.479647,-0.1574 -0.732329,-0.18899 -0.142928,-0.0179 -0.336008,0.0455 -0.472469,0 -0.142722,-0.0476 -0.303406,-0.0933 -0.448847,-0.14174 -0.0154,-0.005 -0.104889,0.0132 -0.118118,0 -0.02498,-0.025 -0.03773,-0.0473 -0.09449,-0.0473 -0.08662,0 -0.173238,0 -0.259857,0 -0.0295,0 -0.07408,-0.044 -0.0945,-0.0236 -0.03341,0.0334 0,0.0945 0,0.14174"
       id="path975"
       inkscape:connector-curvature="0" />
    <path
       style="fill:none;stroke:#000000;stroke-width:0.26458332px;stroke-linecap:butt;stroke-linejoin:miter;stroke-opacity:1"
       d="m 76.49293,118.78422 c 0.224671,-0.0164 0.396377,0.14788 0.59059,0.21262 0.122361,0.0408 0.25923,0.0466 0.330729,0.11811 0.07302,0.073 0.236233,0.0341 0.236233,0.0473 0,0.0153 -0.145278,0.20276 -0.165365,0.23623 -0.06328,0.10546 -0.07169,0.26192 -0.118115,0.37798 -0.113903,0.28476 -0.234913,0.58794 -0.377978,0.87407 -0.0249,0.0498 -0.02787,0.26411 -0.04725,0.28348 -0.0044,0.004 -0.172688,-0.0654 -0.188987,-0.0709 -0.04669,-0.0156 -0.652594,-0.25099 -0.661458,-0.25986 -0.06834,-0.0683 -0.09373,-0.0884 -0.212611,-0.11811"
       id="path977"
       inkscape:connector-curvature="0" />
    <path
       style="fill:none;stroke:#000000;stroke-width:0.26458332px;stroke-linecap:butt;stroke-linejoin:miter;stroke-opacity:1"
       d="m 63.688988,114.24851 c -0.314034,0.0259 -0.576505,-0.1531 -0.874072,-0.21261 -0.150489,-0.0301 -0.32725,0.001 -0.472469,-0.0472 -0.196421,-0.0655 -0.381262,-0.0894 -0.590587,-0.14174 -0.383924,-0.096 -1.137412,-0.39605 -1.464659,-0.61421 -0.16242,-0.10828 -0.315047,-0.24418 -0.448847,-0.37798 -0.03543,-0.0354 -0.106305,-0.0354 -0.14174,-0.0709 -0.07793,-0.0779 -0.186119,-0.1477 -0.283483,-0.21261 -0.122409,-0.0816 -0.21328,-0.20518 -0.330729,-0.28348 -0.256979,-0.17132 -0.604324,-0.24997 -0.779576,-0.42522 -0.01093,-0.0109 -0.05661,0.007 -0.07087,0 -0.04095,-0.0205 -0.02085,-0.0542 -0.07087,-0.0709 -0.134017,-0.0447 -0.256625,-0.0845 -0.377976,-0.16536 -0.174334,-0.11622 -0.404103,-0.14257 -0.614212,-0.21261 -0.04563,-0.0152 -0.122181,0.0216 -0.165364,0 -0.216437,-0.10822 -0.472787,-0.13001 -0.708705,-0.18899 -0.223274,-0.0558 -0.47552,-0.11812 -0.708705,-0.11812 -0.06576,0 -0.133832,-0.0289 -0.188989,-0.0472 -0.03809,-0.0127 -0.146511,0.005 -0.118118,-0.0236 0.01151,-0.0115 0.29709,0.2026 0.330729,0.23624 0.104008,0.104 0.209706,0.22642 0.330729,0.3071 0.06696,0.0446 0.155779,0.0849 0.212611,0.14174 0.218798,0.2188 0.454213,0.47784 0.661459,0.68508 0.08498,0.085 0.156239,0.17987 0.236236,0.25986 0.14324,0.14324 0.410392,0.16756 0.590587,0.21261 0.138527,0.0346 0.269795,0.12143 0.4016,0.16537 0.06451,0.0215 0.125032,0.0968 0.188989,0.11811 0.385072,0.12836 0.766353,0.4287 1.181174,0.56697 0.332095,0.1107 0.667102,0.18 0.968566,0.33073 0.217429,0.10872 0.449908,0.22871 0.68508,0.30711 0.08444,0.0281 0.16296,0.11651 0.236236,0.16536 0.144068,0.096 0.305861,0.16453 0.448847,0.25986 0.07322,0.0488 0.198041,0.0563 0.259858,0.11812 0.123492,0.12349 0.484783,0.31018 0.661458,0.35435 0.05931,0.0148 0.494559,0.16536 0.354354,0.16536"
       id="path979"
       inkscape:connector-curvature="0" />
    <path
       style="fill:none;stroke:#000000;stroke-width:0.26458332px;stroke-linecap:butt;stroke-linejoin:miter;stroke-opacity:1"
       d="m 69.216888,115.35882 c 0.04967,0.0961 0.161777,0.151 0.188989,0.25985 0.02363,0.0945 0.269534,0.75596 0.354352,0.75596 0.05512,0 0,-0.11025 0,-0.16537"
       id="path981"
       inkscape:connector-curvature="0" />
    <path
       style="fill:none;stroke:#000000;stroke-width:0.26458332px;stroke-linecap:butt;stroke-linejoin:miter;stroke-opacity:1"
       d="m 97.954281,79.977143 c 1.087956,2.342526 2.448719,6.021062 2.004521,8.68626 -0.03986,0.239173 -0.373656,1.49723 -0.133634,1.737252 0.288902,0.288901 3.179562,-0.315191 3.608142,-0.400905 0.91535,-0.18307 4.35847,-0.349425 4.94448,-0.935445 0.64663,-0.646626 -0.13363,-3.780462 -0.13363,-4.677217 0,-0.830238 0.28106,-2.926175 -0.26727,-3.474503 -0.23708,-0.23708 -1.9896,0 -2.27179,0 -2.44997,0 -4.89994,0 -7.349914,0"
       id="path983"
       inkscape:connector-curvature="0" />
    <path
       style="fill:none;stroke:#000000;stroke-width:0.26458332px;stroke-linecap:butt;stroke-linejoin:miter;stroke-opacity:1"
       d="m 99.22381,79.242152 c 0.590799,-0.397143 1.33076,-0.531747 1.87089,-0.801809"
       id="path985"
       inkscape:connector-curvature="0" />
    <path
       style="fill:none;stroke:#000000;stroke-width:0.26458332px;stroke-linecap:butt;stroke-linejoin:miter;stroke-opacity:1"
       d="m 103.43331,79.175334 c 0.22454,-0.0035 0.40141,-0.08365 0.60135,-0.133636 0.48313,-0.12078 0.93387,-0.06577 1.33635,-0.334087 0.13456,-0.08971 0.83411,-0.500025 0.53454,-0.200451"
       id="path987"
       inkscape:connector-curvature="0" />
    <path
       style="fill:none;stroke:#000000;stroke-width:0.26458332px;stroke-linecap:butt;stroke-linejoin:miter;stroke-opacity:1"
       d="m 108.17734,79.843507 c 0.22632,-0.120705 1.63997,-0.498186 1.73725,-0.400904"
       id="path989"
       inkscape:connector-curvature="0" />
    <path
       style="fill:none;stroke:#000000;stroke-width:0.26458332px;stroke-linecap:butt;stroke-linejoin:miter;stroke-opacity:1"
       d="m 109.84778,83.384828 c 0.2007,0.06826 2.07133,0.473046 2.07133,0.200454 0,-0.1621 -0.22306,0.0011 -0.26727,0.133633"
       id="path991"
       inkscape:connector-curvature="0" />
    <path
       style="fill:none;stroke:#000000;stroke-width:0.26458332px;stroke-linecap:butt;stroke-linejoin:miter;stroke-opacity:1"
       d="m 109.91459,86.992967 c 0.41093,0.531606 0.47469,1.677397 0.93545,2.138156 0.0958,0.0958 0.4009,-0.06866 0.4009,0.06682 0,0.09183 -0.18015,0.03778 -0.26727,0.06682"
       id="path993"
       inkscape:connector-curvature="0" />
    <path
       style="fill:none;stroke:#000000;stroke-width:0.26458332px;stroke-linecap:butt;stroke-linejoin:miter;stroke-opacity:1"
       d="m 108.11052,90.935192 c 0,0.08909 -0.0175,0.179912 0,0.267269 0.0312,0.156009 0.30151,0.402013 0.40091,0.534541 0.1159,0.154543 0.28549,0.540631 0.33408,0.734991 0.0308,0.123089 -0.04,0.280839 0,0.400904 0.0475,0.142497 0.22171,0.267269 0,0.267269"
       id="path995"
       inkscape:connector-curvature="0" />
    <path
       style="fill:none;stroke:#000000;stroke-width:0.26458332px;stroke-linecap:butt;stroke-linejoin:miter;stroke-opacity:1"
       d="m 103.56694,92.204724 c 0.74907,-0.735724 -0.0354,2.138156 -0.0668,2.138156 -0.16962,0 -0.12459,-0.316008 -0.20045,-0.467722"
       id="path997"
       inkscape:connector-curvature="0" />
    <path
       style="fill:none;stroke:#000000;stroke-width:0.26458332px;stroke-linecap:butt;stroke-linejoin:miter;stroke-opacity:1"
       d="m 100.02562,92.739262 c -0.735595,0.0507 -1.180582,2.093047 -1.469983,0.935445"
       id="path999"
       inkscape:connector-curvature="0" />
    <path
       style="fill:none;stroke:#000000;stroke-width:0.26458332px;stroke-linecap:butt;stroke-linejoin:miter;stroke-opacity:1"
       d="m 98.154732,89.932932 c -0.183856,-0.0026 -0.44278,0.01471 -0.601355,0.133636 -0.220827,0.165619 -1.890792,1.47425 -0.935443,0.200451"
       id="path1001"
       inkscape:connector-curvature="0" />
    <path
       style="fill:none;stroke:#000000;stroke-width:0.26458332px;stroke-linecap:butt;stroke-linejoin:miter;stroke-opacity:1"
       d="m 97.620194,87.393872 c -0.451447,-0.501047 -1.849376,0.288782 -2.204973,-0.06682 -0.0498,-0.0498 0.03532,-0.137457 0.06682,-0.200451"
       id="path1003"
       inkscape:connector-curvature="0" />
    <path
       style="fill:none;stroke:#000000;stroke-width:0.26458332px;stroke-linecap:butt;stroke-linejoin:miter;stroke-opacity:1"
       d="M 97.820645,84.921629 C 97.1719,84.73682 96.268197,84.571894 95.816125,84.119819"
       id="path1005"
       inkscape:connector-curvature="0" />
    <path
       style="fill:none;stroke:#000000;stroke-width:0.26458332px;stroke-linecap:butt;stroke-linejoin:miter;stroke-opacity:1"
       d="M 97.620194,82.248932 C 97.1708,82.093201 95.559921,80.90152 95.415221,81.046221"
       id="path1007"
       inkscape:connector-curvature="0" />
    <path
       style="fill:none;stroke:#000000;stroke-width:0.26458332px;stroke-linecap:butt;stroke-linejoin:miter;stroke-opacity:1"
       d="m 75.169553,170.9156 c 1.030115,0.32617 2.376167,0.30483 3.207234,1.13589 0.116999,0.117 0.192656,0.38531 0.267271,0.53454"
       id="path1009"
       inkscape:connector-curvature="0" />
    <path
       style="fill:none;stroke:#000000;stroke-width:0.26458332px;stroke-linecap:butt;stroke-linejoin:miter;stroke-opacity:1"
       d="m 79.312232,169.51243 c 0.471921,-0.16134 0.847844,0.24278 1.269529,0.40091 0.492413,0.18465 1.37373,0.17101 1.737251,0.53454 0.132596,0.13259 0.249595,0.38322 0.400905,0.53454 0.006,0.006 -0.06682,-0.17767 -0.06682,-0.33409 0,-0.35114 0.04371,-0.54532 0.123685,-0.93181"
       id="path1011"
       inkscape:connector-curvature="0" />
    <path
       style="fill:none;stroke:#000000;stroke-width:0.26458332px;stroke-linecap:butt;stroke-linejoin:miter;stroke-opacity:1"
       d="m 113.18864,169.91334 c -0.68435,0.29283 -2.40542,1.61292 -2.40542,2.3386 0,0.13222 0.2716,0.13797 0.33408,0.20046"
       id="path1013"
       inkscape:connector-curvature="0" />
    <path
       style="fill:none;stroke:#000000;stroke-width:0.26458332px;stroke-linecap:butt;stroke-linejoin:miter;stroke-opacity:1"
       d="m 116.93042,169.98016 c -0.69557,0.82229 -2.53906,1.97107 -2.53906,3.14041"
       id="path1015"
       inkscape:connector-curvature="0" />
    <path
       style="fill:none;stroke:#000000;stroke-width:0.26458332px;stroke-linecap:butt;stroke-linejoin:miter;stroke-opacity:1"
       d="m 89.334839,178.73323 c 0.457639,-1.0184 1.186294,-1.97168 1.670434,-2.93996 0.04916,-0.0983 0.104838,-0.0668 0.200453,-0.0668"
       id="path1017"
       inkscape:connector-curvature="0" />
    <path
       style="fill:none;stroke:#000000;stroke-width:0.26458332px;stroke-linecap:butt;stroke-linejoin:miter;stroke-opacity:1"
       d="m 105.10374,173.52148 c 0.78556,1.36392 1.48868,2.81966 2.07134,4.27631"
       id="path1019"
       inkscape:connector-curvature="0" />
    <path
       style="fill:none;stroke:#000000;stroke-width:0.26458332px;stroke-linecap:butt;stroke-linejoin:miter;stroke-opacity:1"
       d="m 111.1173,132.16152 c -1.75588,0.68035 -3.62993,0.96135 -5.47902,1.26953 -0.43161,0.0719 -1.28834,0.0856 -1.60362,0.4009 -0.17761,0.17761 0.16784,0.97284 0.20045,1.1359 0.2955,1.47747 0.26728,3.03794 0.26728,4.54358 0,1.19987 -0.0359,2.98074 -0.40091,4.07586 -0.13615,0.40846 0.83643,-0.20094 1.00226,-0.26727 0.96727,-0.38691 2.10278,-0.21224 3.14042,-0.40091 0.39973,-0.0727 1.4062,-0.23537 1.73725,-0.4009 0.0435,-0.0217 0.30637,-1.19775 0.33409,-1.33635 0.15507,-0.77537 0.37448,-1.58235 0.60135,-2.3386 0.19851,-0.66169 0.51424,-1.30755 0.60136,-2.00453 0.0524,-0.41927 0.0144,-0.85027 0.0668,-1.26953 0.0335,-0.26767 0.13363,-0.53345 0.13363,-0.8018 0,-0.70885 0.0668,-1.47482 0.0668,-2.13816 0,-0.18361 -0.0668,-0.30294 -0.0668,-0.46772 0,-0.0445 0.0446,-0.13364 0,-0.13364 -0.067,0 -0.24648,0.20045 -0.33409,0.20045 -0.0918,0 -0.17817,-0.0445 -0.26727,-0.0668 -0.26726,0.0445 -0.53453,0.0891 -0.8018,0.13363"
       id="path1021"
       inkscape:connector-curvature="0" />
    <path
       style="fill:none;stroke:#000000;stroke-width:0.26458332px;stroke-linecap:butt;stroke-linejoin:miter;stroke-opacity:1"
       d="m 104.50239,134.29967 c 0.0891,0.0668 0.18852,0.12171 0.26726,0.20046 0.0118,0.0118 0.37885,1.13621 0.46773,1.26953 0.33117,0.49676 0.80861,0.94905 1.06907,1.46998 0.0485,0.0969 0.26914,0.1355 0.33409,0.20045 0.0587,0.0587 0.1248,0.25844 0.20045,0.33409 0.23218,0.23217 1.65812,-2.10509 1.80407,-2.33861 0.21172,-0.33876 0.62785,-0.77914 0.80181,-1.06908 0.22866,-0.3811 0.43581,-0.81545 0.66817,-1.20271 0.13449,-0.22415 0.34873,-0.43018 0.46773,-0.66818 0.005,-0.0108 0.13363,-0.26085 0.13363,-0.20045 0,0.0738 -0.22657,0.2866 -0.26727,0.33409 -0.0928,0.10828 -0.2143,0.4665 -0.26727,0.33409 -0.0844,-0.21089 0.0891,-0.44545 0.13362,-0.66817"
       id="path1023"
       inkscape:connector-curvature="0" />
    <path
       style="fill:none;stroke:#000000;stroke-width:0.26458332px;stroke-linecap:butt;stroke-linejoin:miter;stroke-opacity:1"
       d="m 106.50691,136.77192 c 0.52893,-0.21096 0.87309,-0.16034 1.20271,0.33408 0.23593,0.35391 0.53454,0.0503 0.53454,0.80181 0,0.0633 0.0277,0.21178 0,0.26727 -0.3712,0.7424 -0.7435,1.13306 -1.73725,0.80181 -0.12453,-0.0415 -0.52191,-0.1481 -0.60136,-0.26727 -0.48135,-0.72203 0.1673,-2.05476 0.86862,-2.40542 0.20992,-0.10496 0.53454,-0.28926 0.53454,0.0668"
       id="path1025"
       inkscape:connector-curvature="0" />
  </g>
</svg>
